%TF.GenerationSoftware,KiCad,Pcbnew,9.0.1*%
%TF.CreationDate,2025-07-09T09:57:16-04:00*%
%TF.ProjectId,STM32WL33K8V6,53544d33-3257-44c3-9333-4b3856362e6b,rev?*%
%TF.SameCoordinates,Original*%
%TF.FileFunction,Copper,L1,Top*%
%TF.FilePolarity,Positive*%
%FSLAX46Y46*%
G04 Gerber Fmt 4.6, Leading zero omitted, Abs format (unit mm)*
G04 Created by KiCad (PCBNEW 9.0.1) date 2025-07-09 09:57:16*
%MOMM*%
%LPD*%
G01*
G04 APERTURE LIST*
%TA.AperFunction,ComponentPad*%
%ADD10C,1.700000*%
%TD*%
%TA.AperFunction,ComponentPad*%
%ADD11R,1.700000X1.700000*%
%TD*%
%TA.AperFunction,SMDPad,CuDef*%
%ADD12R,0.807999X0.254800*%
%TD*%
%TA.AperFunction,SMDPad,CuDef*%
%ADD13R,0.254800X0.807999*%
%TD*%
%TA.AperFunction,SMDPad,CuDef*%
%ADD14R,3.505200X3.505200*%
%TD*%
%TA.AperFunction,Conductor*%
%ADD15C,0.200000*%
%TD*%
G04 APERTURE END LIST*
D10*
%TO.P,J4,8,Pin_8*%
%TO.N,Pin 32*%
X132080000Y-77470000D03*
%TO.P,J4,7,Pin_7*%
%TO.N,Pin 31*%
X134620000Y-77470000D03*
%TO.P,J4,6,Pin_6*%
%TO.N,Pin 30*%
X137160000Y-77470000D03*
%TO.P,J4,5,Pin_5*%
%TO.N,Pin 29*%
X139700000Y-77470000D03*
%TO.P,J4,4,Pin_4*%
%TO.N,Pin 28*%
X142240000Y-77470000D03*
%TO.P,J4,3,Pin_3*%
%TO.N,Pin 27*%
X144780000Y-77470000D03*
%TO.P,J4,2,Pin_2*%
%TO.N,Pin 26*%
X147320000Y-77470000D03*
D11*
%TO.P,J4,1,Pin_1*%
%TO.N,Pin 25*%
X149860000Y-77470000D03*
%TD*%
D12*
%TO.P,U1,1,PA2*%
%TO.N,Pin 1*%
X138521300Y-89690001D03*
%TO.P,U1,2,PA3*%
%TO.N,Pin 2*%
X138521300Y-90190000D03*
%TO.P,U1,3,VDD_1*%
%TO.N,Pin 3*%
X138521300Y-90689999D03*
%TO.P,U1,4,PA0*%
%TO.N,Pin 4*%
X138521300Y-91190000D03*
%TO.P,U1,5,PA11*%
%TO.N,Pin 5*%
X138521300Y-91690000D03*
%TO.P,U1,6,PA10*%
%TO.N,Pin 6*%
X138521300Y-92190001D03*
%TO.P,U1,7,PA9*%
%TO.N,Pin 7*%
X138521300Y-92690000D03*
%TO.P,U1,8,PA8*%
%TO.N,Pin 8*%
X138521300Y-93189999D03*
D13*
%TO.P,U1,9,PB6*%
%TO.N,Pin 9*%
X139220001Y-93888700D03*
%TO.P,U1,10,PB12*%
%TO.N,Pin 10*%
X139720000Y-93888700D03*
%TO.P,U1,11,PB13*%
%TO.N,Pin 11*%
X140219999Y-93888700D03*
%TO.P,U1,12,PB14*%
%TO.N,Pin 12*%
X140720000Y-93888700D03*
%TO.P,U1,13,PB15*%
%TO.N,Pin 13*%
X141220000Y-93888700D03*
%TO.P,U1,14,LPAWUR*%
%TO.N,Pin 14*%
X141720001Y-93888700D03*
%TO.P,U1,15,RX*%
%TO.N,Pin 15*%
X142220000Y-93888700D03*
%TO.P,U1,16,EXTGND*%
%TO.N,Pin 16*%
X142719999Y-93888700D03*
D12*
%TO.P,U1,17,TX_HP*%
%TO.N,Pin 17*%
X143418700Y-93189999D03*
%TO.P,U1,18,TX*%
%TO.N,Pin 18*%
X143418700Y-92690000D03*
%TO.P,U1,19,VDDRF*%
%TO.N,Pin 19*%
X143418700Y-92190001D03*
%TO.P,U1,20,OSCOUT*%
%TO.N,Pin 20*%
X143418700Y-91690000D03*
%TO.P,U1,21,OSCIN*%
%TO.N,Pin 21*%
X143418700Y-91190000D03*
%TO.P,U1,22,PA1*%
%TO.N,Pin 22*%
X143418700Y-90689999D03*
%TO.P,U1,23,PB7*%
%TO.N,Pin 23*%
X143418700Y-90190000D03*
%TO.P,U1,24,NRST*%
%TO.N,Pin 24*%
X143418700Y-89690001D03*
D13*
%TO.P,U1,25,VDDSD*%
%TO.N,Pin 25*%
X142719999Y-88991300D03*
%TO.P,U1,26,VLXSD*%
%TO.N,Pin 26*%
X142220000Y-88991300D03*
%TO.P,U1,27,VSSSD*%
%TO.N,Pin 27*%
X141720001Y-88991300D03*
%TO.P,U1,28,VFBSD*%
%TO.N,Pin 28*%
X141220000Y-88991300D03*
%TO.P,U1,29,VCAP*%
%TO.N,Pin 29*%
X140720000Y-88991300D03*
%TO.P,U1,30,PB0*%
%TO.N,Pin 30*%
X140219999Y-88991300D03*
%TO.P,U1,31,PB1*%
%TO.N,Pin 31*%
X139720000Y-88991300D03*
%TO.P,U1,32,PB2*%
%TO.N,Pin 32*%
X139220001Y-88991300D03*
D14*
%TO.P,U1,33,EPAD*%
%TO.N,Pin 16*%
X140970000Y-91440000D03*
%TD*%
D11*
%TO.P,J3,1,Pin_1*%
%TO.N,Pin 17*%
X153670000Y-100330000D03*
D10*
%TO.P,J3,2,Pin_2*%
%TO.N,Pin 18*%
X153670000Y-97790000D03*
%TO.P,J3,3,Pin_3*%
%TO.N,Pin 19*%
X153670000Y-95250000D03*
%TO.P,J3,4,Pin_4*%
%TO.N,Pin 20*%
X153670000Y-92710000D03*
%TO.P,J3,5,Pin_5*%
%TO.N,Pin 21*%
X153670000Y-90170000D03*
%TO.P,J3,6,Pin_6*%
%TO.N,Pin 22*%
X153670000Y-87630000D03*
%TO.P,J3,7,Pin_7*%
%TO.N,Pin 23*%
X153670000Y-85090000D03*
%TO.P,J3,8,Pin_8*%
%TO.N,Pin 24*%
X153670000Y-82550000D03*
%TD*%
D11*
%TO.P,J2,1,Pin_1*%
%TO.N,Pin 9*%
X132080000Y-105410000D03*
D10*
%TO.P,J2,2,Pin_2*%
%TO.N,Pin 10*%
X134620000Y-105410000D03*
%TO.P,J2,3,Pin_3*%
%TO.N,Pin 11*%
X137160000Y-105410000D03*
%TO.P,J2,4,Pin_4*%
%TO.N,Pin 12*%
X139700000Y-105410000D03*
%TO.P,J2,5,Pin_5*%
%TO.N,Pin 13*%
X142240000Y-105410000D03*
%TO.P,J2,6,Pin_6*%
%TO.N,Pin 14*%
X144780000Y-105410000D03*
%TO.P,J2,7,Pin_7*%
%TO.N,Pin 15*%
X147320000Y-105410000D03*
%TO.P,J2,8,Pin_8*%
%TO.N,Pin 16*%
X149860000Y-105410000D03*
%TD*%
D11*
%TO.P,J1,1,Pin_1*%
%TO.N,Pin 1*%
X128270000Y-82550000D03*
D10*
%TO.P,J1,2,Pin_2*%
%TO.N,Pin 2*%
X128270000Y-85090000D03*
%TO.P,J1,3,Pin_3*%
%TO.N,Pin 3*%
X128270000Y-87630000D03*
%TO.P,J1,4,Pin_4*%
%TO.N,Pin 4*%
X128270000Y-90170000D03*
%TO.P,J1,5,Pin_5*%
%TO.N,Pin 5*%
X128270000Y-92710000D03*
%TO.P,J1,6,Pin_6*%
%TO.N,Pin 6*%
X128270000Y-95250000D03*
%TO.P,J1,7,Pin_7*%
%TO.N,Pin 7*%
X128270000Y-97790000D03*
%TO.P,J1,8,Pin_8*%
%TO.N,Pin 8*%
X128270000Y-100330000D03*
%TD*%
D15*
%TO.N,Pin 16*%
X142719999Y-93888700D02*
X142713701Y-93882402D01*
X142713701Y-93882402D02*
X142713701Y-93183701D01*
X142713701Y-93183701D02*
X140970000Y-91440000D01*
%TO.N,Pin 25*%
X142719999Y-88991300D02*
X142719999Y-84610001D01*
X142719999Y-84610001D02*
X149860000Y-77470000D01*
%TO.N,Pin 26*%
X142220000Y-88991300D02*
X142220000Y-82570000D01*
X142220000Y-82570000D02*
X147320000Y-77470000D01*
%TO.N,Pin 27*%
X141720001Y-88991300D02*
X141720001Y-80529999D01*
X141720001Y-80529999D02*
X144780000Y-77470000D01*
%TO.N,Pin 28*%
X141220000Y-88991300D02*
X141220000Y-78490000D01*
X141220000Y-78490000D02*
X142240000Y-77470000D01*
%TO.N,Pin 29*%
X140720000Y-88991300D02*
X140720000Y-78490000D01*
X140720000Y-78490000D02*
X139700000Y-77470000D01*
%TO.N,Pin 30*%
X140219999Y-88991300D02*
X140219999Y-80529999D01*
X140219999Y-80529999D02*
X137160000Y-77470000D01*
%TO.N,Pin 31*%
X139720000Y-88991300D02*
X139720000Y-82570000D01*
X139720000Y-82570000D02*
X134620000Y-77470000D01*
%TO.N,Pin 32*%
X139220001Y-88991300D02*
X139220001Y-84610001D01*
X139220001Y-84610001D02*
X132080000Y-77470000D01*
%TO.N,Pin 16*%
X142719999Y-93888700D02*
X142648400Y-93960299D01*
X142648400Y-93960299D02*
X142648400Y-98198400D01*
X142648400Y-98198400D02*
X149860000Y-105410000D01*
%TO.N,Pin 15*%
X142220000Y-93888700D02*
X142220000Y-100310000D01*
X142220000Y-100310000D02*
X147320000Y-105410000D01*
%TO.N,Pin 14*%
X141720001Y-93888700D02*
X141720001Y-102350001D01*
X141720001Y-102350001D02*
X144780000Y-105410000D01*
%TO.N,Pin 13*%
X141220000Y-93888700D02*
X141220000Y-104390000D01*
X141220000Y-104390000D02*
X142240000Y-105410000D01*
%TO.N,Pin 12*%
X140720000Y-93888700D02*
X140720000Y-104390000D01*
X140720000Y-104390000D02*
X139700000Y-105410000D01*
%TO.N,Pin 11*%
X140219999Y-93888700D02*
X140219999Y-102350001D01*
X140219999Y-102350001D02*
X137160000Y-105410000D01*
%TO.N,Pin 10*%
X139720000Y-93888700D02*
X139720000Y-100310000D01*
X139720000Y-100310000D02*
X134620000Y-105410000D01*
%TO.N,Pin 9*%
X139220001Y-93888700D02*
X139220001Y-98269999D01*
X139220001Y-98269999D02*
X132080000Y-105410000D01*
%TO.N,Pin 17*%
X143418700Y-93189999D02*
X146529999Y-93189999D01*
X146529999Y-93189999D02*
X153670000Y-100330000D01*
%TO.N,Pin 18*%
X143418700Y-92690000D02*
X148570000Y-92690000D01*
X148570000Y-92690000D02*
X153670000Y-97790000D01*
%TO.N,Pin 19*%
X143418700Y-92190001D02*
X150610001Y-92190001D01*
X150610001Y-92190001D02*
X153670000Y-95250000D01*
%TO.N,Pin 20*%
X143418700Y-91690000D02*
X152650000Y-91690000D01*
X152650000Y-91690000D02*
X153670000Y-92710000D01*
%TO.N,Pin 21*%
X143418700Y-91190000D02*
X152650000Y-91190000D01*
X152650000Y-91190000D02*
X153670000Y-90170000D01*
%TO.N,Pin 22*%
X143418700Y-90689999D02*
X150610001Y-90689999D01*
X150610001Y-90689999D02*
X153670000Y-87630000D01*
%TO.N,Pin 23*%
X143418700Y-90190000D02*
X148570000Y-90190000D01*
X148570000Y-90190000D02*
X153670000Y-85090000D01*
%TO.N,Pin 24*%
X143418700Y-89690001D02*
X146529999Y-89690001D01*
X146529999Y-89690001D02*
X153670000Y-82550000D01*
%TO.N,Pin 8*%
X138521300Y-93189999D02*
X135410001Y-93189999D01*
X135410001Y-93189999D02*
X128270000Y-100330000D01*
%TO.N,Pin 7*%
X138521300Y-92690000D02*
X133370000Y-92690000D01*
X133370000Y-92690000D02*
X128270000Y-97790000D01*
%TO.N,Pin 6*%
X138521300Y-92190001D02*
X131329999Y-92190001D01*
X131329999Y-92190001D02*
X128270000Y-95250000D01*
%TO.N,Pin 5*%
X138521300Y-91690000D02*
X129290000Y-91690000D01*
X129290000Y-91690000D02*
X128270000Y-92710000D01*
%TO.N,Pin 4*%
X138521300Y-91190000D02*
X129290000Y-91190000D01*
X129290000Y-91190000D02*
X128270000Y-90170000D01*
%TO.N,Pin 3*%
X138521300Y-90689999D02*
X131329999Y-90689999D01*
X131329999Y-90689999D02*
X128270000Y-87630000D01*
%TO.N,Pin 2*%
X138521300Y-90190000D02*
X133370000Y-90190000D01*
X133370000Y-90190000D02*
X128270000Y-85090000D01*
%TO.N,Pin 1*%
X138521300Y-89690001D02*
X135410001Y-89690001D01*
X135410001Y-89690001D02*
X128270000Y-82550000D01*
%TD*%
M02*
