M48
; DRILL file {KiCad 9.0.1} date 2025-07-09T15:09:10-0400
; FORMAT={-:-/ absolute / metric / decimal}
; #@! TF.CreationDate,2025-07-09T15:09:10-04:00
; #@! TF.GenerationSoftware,Kicad,Pcbnew,9.0.1
; #@! TF.FileFunction,Plated,1,2,PTH
FMAT,2
METRIC
; #@! TA.AperFunction,Plated,PTH,ComponentDrill
T1C1.000
%
G90
G05
T1
X128.27Y-82.55
X128.27Y-85.09
X128.27Y-87.63
X128.27Y-90.17
X128.27Y-92.71
X128.27Y-95.25
X128.27Y-97.79
X128.27Y-100.33
X132.08Y-77.47
X132.08Y-105.41
X134.62Y-77.47
X134.62Y-105.41
X137.16Y-77.47
X137.16Y-105.41
X139.7Y-77.47
X139.7Y-105.41
X142.24Y-77.47
X142.24Y-105.41
X144.78Y-77.47
X144.78Y-105.41
X147.32Y-77.47
X147.32Y-105.41
X149.86Y-77.47
X149.86Y-105.41
X153.67Y-82.55
X153.67Y-85.09
X153.67Y-87.63
X153.67Y-90.17
X153.67Y-92.71
X153.67Y-95.25
X153.67Y-97.79
X153.67Y-100.33
M30
