%TF.GenerationSoftware,KiCad,Pcbnew,9.0.1*%
%TF.CreationDate,2025-08-21T20:12:05-04:00*%
%TF.ProjectId,STM32WL33CC1,53544d33-3257-44c3-9333-4343312e6b69,rev?*%
%TF.SameCoordinates,Original*%
%TF.FileFunction,Soldermask,Top*%
%TF.FilePolarity,Negative*%
%FSLAX46Y46*%
G04 Gerber Fmt 4.6, Leading zero omitted, Abs format (unit mm)*
G04 Created by KiCad (PCBNEW 9.0.1) date 2025-08-21 20:12:05*
%MOMM*%
%LPD*%
G01*
G04 APERTURE LIST*
%ADD10C,1.700000*%
%ADD11R,1.700000X1.700000*%
%ADD12R,0.863600X0.203200*%
%ADD13R,0.203200X0.863600*%
%ADD14R,4.495800X4.495800*%
G04 APERTURE END LIST*
D10*
%TO.C,J2*%
X163830000Y-97790000D03*
X161290000Y-97790000D03*
X158750000Y-97790000D03*
X156210000Y-97790000D03*
X153670000Y-97790000D03*
X151130000Y-97790000D03*
X148590000Y-97790000D03*
X146050000Y-97790000D03*
X143510000Y-97790000D03*
X140970000Y-97790000D03*
X138430000Y-97790000D03*
D11*
X135890000Y-97790000D03*
%TD*%
D12*
%TO.C,U1*%
X145974800Y-74744999D03*
X145974800Y-75145001D03*
X145974800Y-75545000D03*
X145974800Y-75944999D03*
X145974800Y-76345001D03*
X145974800Y-76745000D03*
X145974800Y-77145000D03*
X145974800Y-77544999D03*
X145974800Y-77945001D03*
X145974800Y-78345000D03*
X145974800Y-78744999D03*
X145974800Y-79145001D03*
D13*
X146644999Y-79815200D03*
X147045001Y-79815200D03*
X147445000Y-79815200D03*
X147844999Y-79815200D03*
X148245001Y-79815200D03*
X148645000Y-79815200D03*
X149045000Y-79815200D03*
X149444999Y-79815200D03*
X149845001Y-79815200D03*
X150245000Y-79815200D03*
X150644999Y-79815200D03*
X151045001Y-79815200D03*
D12*
X151715200Y-79145001D03*
X151715200Y-78744999D03*
X151715200Y-78345000D03*
X151715200Y-77945001D03*
X151715200Y-77544999D03*
X151715200Y-77145000D03*
X151715200Y-76745000D03*
X151715200Y-76345001D03*
X151715200Y-75944999D03*
X151715200Y-75545000D03*
X151715200Y-75145001D03*
X151715200Y-74744999D03*
D13*
X151045001Y-74074800D03*
X150644999Y-74074800D03*
X150245000Y-74074800D03*
X149845001Y-74074800D03*
X149444999Y-74074800D03*
X149045000Y-74074800D03*
X148645000Y-74074800D03*
X148245001Y-74074800D03*
X147844999Y-74074800D03*
X147445000Y-74074800D03*
X147045001Y-74074800D03*
X146644999Y-74074800D03*
D14*
X148845000Y-76945000D03*
%TD*%
D11*
%TO.C,J4*%
X162560000Y-57150000D03*
D10*
X160020000Y-57150000D03*
X157480000Y-57150000D03*
X154940000Y-57150000D03*
X152400000Y-57150000D03*
X149860000Y-57150000D03*
X147320000Y-57150000D03*
X144780000Y-57150000D03*
X142240000Y-57150000D03*
X139700000Y-57150000D03*
X137160000Y-57150000D03*
X134620000Y-57150000D03*
%TD*%
D11*
%TO.C,J3*%
X171450000Y-91440000D03*
D10*
X171450000Y-88900000D03*
X171450000Y-86360000D03*
X171450000Y-83820000D03*
X171450000Y-81280000D03*
X171450000Y-78740000D03*
X171450000Y-76200000D03*
X171450000Y-73660000D03*
X171450000Y-71120000D03*
X171450000Y-68580000D03*
X171450000Y-66040000D03*
X171450000Y-63500000D03*
%TD*%
D11*
%TO.C,J1*%
X125730000Y-63500000D03*
D10*
X125730000Y-66040000D03*
X125730000Y-68580000D03*
X125730000Y-71120000D03*
X125730000Y-73660000D03*
X125730000Y-76200000D03*
X125730000Y-78740000D03*
X125730000Y-81280000D03*
X125730000Y-83820000D03*
X125730000Y-86360000D03*
X125730000Y-88900000D03*
X125730000Y-91440000D03*
%TD*%
M02*
