M48
; DRILL file {KiCad 9.0.1} date 2025-08-21T20:11:57-0400
; FORMAT={-:-/ absolute / metric / decimal}
; #@! TF.CreationDate,2025-08-21T20:11:57-04:00
; #@! TF.GenerationSoftware,Kicad,Pcbnew,9.0.1
; #@! TF.FileFunction,Plated,1,2,PTH
FMAT,2
METRIC
; #@! TA.AperFunction,Plated,PTH,ComponentDrill
T1C1.000
%
G90
G05
T1
X125.73Y-63.5
X125.73Y-66.04
X125.73Y-68.58
X125.73Y-71.12
X125.73Y-73.66
X125.73Y-76.2
X125.73Y-78.74
X125.73Y-81.28
X125.73Y-83.82
X125.73Y-86.36
X125.73Y-88.9
X125.73Y-91.44
X134.62Y-57.15
X135.89Y-97.79
X137.16Y-57.15
X138.43Y-97.79
X139.7Y-57.15
X140.97Y-97.79
X142.24Y-57.15
X143.51Y-97.79
X144.78Y-57.15
X146.05Y-97.79
X147.32Y-57.15
X148.59Y-97.79
X149.86Y-57.15
X151.13Y-97.79
X152.4Y-57.15
X153.67Y-97.79
X154.94Y-57.15
X156.21Y-97.79
X157.48Y-57.15
X158.75Y-97.79
X160.02Y-57.15
X161.29Y-97.79
X162.56Y-57.15
X163.83Y-97.79
X171.45Y-63.5
X171.45Y-66.04
X171.45Y-68.58
X171.45Y-71.12
X171.45Y-73.66
X171.45Y-76.2
X171.45Y-78.74
X171.45Y-81.28
X171.45Y-83.82
X171.45Y-86.36
X171.45Y-88.9
X171.45Y-91.44
M30
