%TF.GenerationSoftware,KiCad,Pcbnew,9.0.1*%
%TF.CreationDate,2025-08-21T20:12:05-04:00*%
%TF.ProjectId,STM32WL33CC1,53544d33-3257-44c3-9333-4343312e6b69,rev?*%
%TF.SameCoordinates,Original*%
%TF.FileFunction,Legend,Top*%
%TF.FilePolarity,Positive*%
%FSLAX46Y46*%
G04 Gerber Fmt 4.6, Leading zero omitted, Abs format (unit mm)*
G04 Created by KiCad (PCBNEW 9.0.1) date 2025-08-21 20:12:05*
%MOMM*%
%LPD*%
G01*
G04 APERTURE LIST*
%ADD10C,0.100000*%
%ADD11C,0.150000*%
%ADD12C,0.120000*%
%ADD13C,0.000000*%
%ADD14C,0.152400*%
G04 APERTURE END LIST*
D10*
X163340074Y-104012419D02*
X162863884Y-104012419D01*
X162863884Y-104012419D02*
X162863884Y-103012419D01*
X164101979Y-104012419D02*
X164101979Y-103488609D01*
X164101979Y-103488609D02*
X164054360Y-103393371D01*
X164054360Y-103393371D02*
X163959122Y-103345752D01*
X163959122Y-103345752D02*
X163768646Y-103345752D01*
X163768646Y-103345752D02*
X163673408Y-103393371D01*
X164101979Y-103964800D02*
X164006741Y-104012419D01*
X164006741Y-104012419D02*
X163768646Y-104012419D01*
X163768646Y-104012419D02*
X163673408Y-103964800D01*
X163673408Y-103964800D02*
X163625789Y-103869561D01*
X163625789Y-103869561D02*
X163625789Y-103774323D01*
X163625789Y-103774323D02*
X163673408Y-103679085D01*
X163673408Y-103679085D02*
X163768646Y-103631466D01*
X163768646Y-103631466D02*
X164006741Y-103631466D01*
X164006741Y-103631466D02*
X164101979Y-103583847D01*
X164578170Y-104012419D02*
X164578170Y-103345752D01*
X164578170Y-103536228D02*
X164625789Y-103440990D01*
X164625789Y-103440990D02*
X164673408Y-103393371D01*
X164673408Y-103393371D02*
X164768646Y-103345752D01*
X164768646Y-103345752D02*
X164863884Y-103345752D01*
X165197218Y-104012419D02*
X165197218Y-103012419D01*
X165292456Y-103631466D02*
X165578170Y-104012419D01*
X165578170Y-103345752D02*
X165197218Y-103726704D01*
X165959123Y-103964800D02*
X166054361Y-104012419D01*
X166054361Y-104012419D02*
X166244837Y-104012419D01*
X166244837Y-104012419D02*
X166340075Y-103964800D01*
X166340075Y-103964800D02*
X166387694Y-103869561D01*
X166387694Y-103869561D02*
X166387694Y-103821942D01*
X166387694Y-103821942D02*
X166340075Y-103726704D01*
X166340075Y-103726704D02*
X166244837Y-103679085D01*
X166244837Y-103679085D02*
X166101980Y-103679085D01*
X166101980Y-103679085D02*
X166006742Y-103631466D01*
X166006742Y-103631466D02*
X165959123Y-103536228D01*
X165959123Y-103536228D02*
X165959123Y-103488609D01*
X165959123Y-103488609D02*
X166006742Y-103393371D01*
X166006742Y-103393371D02*
X166101980Y-103345752D01*
X166101980Y-103345752D02*
X166244837Y-103345752D01*
X166244837Y-103345752D02*
X166340075Y-103393371D01*
X166816266Y-103345752D02*
X166816266Y-104345752D01*
X166816266Y-103393371D02*
X166911504Y-103345752D01*
X166911504Y-103345752D02*
X167101980Y-103345752D01*
X167101980Y-103345752D02*
X167197218Y-103393371D01*
X167197218Y-103393371D02*
X167244837Y-103440990D01*
X167244837Y-103440990D02*
X167292456Y-103536228D01*
X167292456Y-103536228D02*
X167292456Y-103821942D01*
X167292456Y-103821942D02*
X167244837Y-103917180D01*
X167244837Y-103917180D02*
X167197218Y-103964800D01*
X167197218Y-103964800D02*
X167101980Y-104012419D01*
X167101980Y-104012419D02*
X166911504Y-104012419D01*
X166911504Y-104012419D02*
X166816266Y-103964800D01*
X168149599Y-103345752D02*
X168149599Y-104012419D01*
X167721028Y-103345752D02*
X167721028Y-103869561D01*
X167721028Y-103869561D02*
X167768647Y-103964800D01*
X167768647Y-103964800D02*
X167863885Y-104012419D01*
X167863885Y-104012419D02*
X168006742Y-104012419D01*
X168006742Y-104012419D02*
X168101980Y-103964800D01*
X168101980Y-103964800D02*
X168149599Y-103917180D01*
X168625790Y-104012419D02*
X168625790Y-103345752D01*
X168625790Y-103536228D02*
X168673409Y-103440990D01*
X168673409Y-103440990D02*
X168721028Y-103393371D01*
X168721028Y-103393371D02*
X168816266Y-103345752D01*
X168816266Y-103345752D02*
X168911504Y-103345752D01*
X170482933Y-104012419D02*
X170006743Y-104012419D01*
X170006743Y-104012419D02*
X170006743Y-103012419D01*
X171244838Y-104012419D02*
X171244838Y-103488609D01*
X171244838Y-103488609D02*
X171197219Y-103393371D01*
X171197219Y-103393371D02*
X171101981Y-103345752D01*
X171101981Y-103345752D02*
X170911505Y-103345752D01*
X170911505Y-103345752D02*
X170816267Y-103393371D01*
X171244838Y-103964800D02*
X171149600Y-104012419D01*
X171149600Y-104012419D02*
X170911505Y-104012419D01*
X170911505Y-104012419D02*
X170816267Y-103964800D01*
X170816267Y-103964800D02*
X170768648Y-103869561D01*
X170768648Y-103869561D02*
X170768648Y-103774323D01*
X170768648Y-103774323D02*
X170816267Y-103679085D01*
X170816267Y-103679085D02*
X170911505Y-103631466D01*
X170911505Y-103631466D02*
X171149600Y-103631466D01*
X171149600Y-103631466D02*
X171244838Y-103583847D01*
X171721029Y-104012419D02*
X171721029Y-103012419D01*
X171721029Y-103393371D02*
X171816267Y-103345752D01*
X171816267Y-103345752D02*
X172006743Y-103345752D01*
X172006743Y-103345752D02*
X172101981Y-103393371D01*
X172101981Y-103393371D02*
X172149600Y-103440990D01*
X172149600Y-103440990D02*
X172197219Y-103536228D01*
X172197219Y-103536228D02*
X172197219Y-103821942D01*
X172197219Y-103821942D02*
X172149600Y-103917180D01*
X172149600Y-103917180D02*
X172101981Y-103964800D01*
X172101981Y-103964800D02*
X172006743Y-104012419D01*
X172006743Y-104012419D02*
X171816267Y-104012419D01*
X171816267Y-104012419D02*
X171721029Y-103964800D01*
X161593884Y-54482419D02*
X161593884Y-53482419D01*
X161593884Y-53482419D02*
X161974836Y-53482419D01*
X161974836Y-53482419D02*
X162070074Y-53530038D01*
X162070074Y-53530038D02*
X162117693Y-53577657D01*
X162117693Y-53577657D02*
X162165312Y-53672895D01*
X162165312Y-53672895D02*
X162165312Y-53815752D01*
X162165312Y-53815752D02*
X162117693Y-53910990D01*
X162117693Y-53910990D02*
X162070074Y-53958609D01*
X162070074Y-53958609D02*
X161974836Y-54006228D01*
X161974836Y-54006228D02*
X161593884Y-54006228D01*
X162593884Y-54482419D02*
X162593884Y-53815752D01*
X162593884Y-53482419D02*
X162546265Y-53530038D01*
X162546265Y-53530038D02*
X162593884Y-53577657D01*
X162593884Y-53577657D02*
X162641503Y-53530038D01*
X162641503Y-53530038D02*
X162593884Y-53482419D01*
X162593884Y-53482419D02*
X162593884Y-53577657D01*
X163070074Y-53815752D02*
X163070074Y-54482419D01*
X163070074Y-53910990D02*
X163117693Y-53863371D01*
X163117693Y-53863371D02*
X163212931Y-53815752D01*
X163212931Y-53815752D02*
X163355788Y-53815752D01*
X163355788Y-53815752D02*
X163451026Y-53863371D01*
X163451026Y-53863371D02*
X163498645Y-53958609D01*
X163498645Y-53958609D02*
X163498645Y-54482419D01*
X164641503Y-53482419D02*
X165260550Y-53482419D01*
X165260550Y-53482419D02*
X164927217Y-53863371D01*
X164927217Y-53863371D02*
X165070074Y-53863371D01*
X165070074Y-53863371D02*
X165165312Y-53910990D01*
X165165312Y-53910990D02*
X165212931Y-53958609D01*
X165212931Y-53958609D02*
X165260550Y-54053847D01*
X165260550Y-54053847D02*
X165260550Y-54291942D01*
X165260550Y-54291942D02*
X165212931Y-54387180D01*
X165212931Y-54387180D02*
X165165312Y-54434800D01*
X165165312Y-54434800D02*
X165070074Y-54482419D01*
X165070074Y-54482419D02*
X164784360Y-54482419D01*
X164784360Y-54482419D02*
X164689122Y-54434800D01*
X164689122Y-54434800D02*
X164641503Y-54387180D01*
X165593884Y-53482419D02*
X166260550Y-53482419D01*
X166260550Y-53482419D02*
X165831979Y-54482419D01*
X174293884Y-92582419D02*
X174293884Y-91582419D01*
X174293884Y-91582419D02*
X174674836Y-91582419D01*
X174674836Y-91582419D02*
X174770074Y-91630038D01*
X174770074Y-91630038D02*
X174817693Y-91677657D01*
X174817693Y-91677657D02*
X174865312Y-91772895D01*
X174865312Y-91772895D02*
X174865312Y-91915752D01*
X174865312Y-91915752D02*
X174817693Y-92010990D01*
X174817693Y-92010990D02*
X174770074Y-92058609D01*
X174770074Y-92058609D02*
X174674836Y-92106228D01*
X174674836Y-92106228D02*
X174293884Y-92106228D01*
X175293884Y-92582419D02*
X175293884Y-91915752D01*
X175293884Y-91582419D02*
X175246265Y-91630038D01*
X175246265Y-91630038D02*
X175293884Y-91677657D01*
X175293884Y-91677657D02*
X175341503Y-91630038D01*
X175341503Y-91630038D02*
X175293884Y-91582419D01*
X175293884Y-91582419D02*
X175293884Y-91677657D01*
X175770074Y-91915752D02*
X175770074Y-92582419D01*
X175770074Y-92010990D02*
X175817693Y-91963371D01*
X175817693Y-91963371D02*
X175912931Y-91915752D01*
X175912931Y-91915752D02*
X176055788Y-91915752D01*
X176055788Y-91915752D02*
X176151026Y-91963371D01*
X176151026Y-91963371D02*
X176198645Y-92058609D01*
X176198645Y-92058609D02*
X176198645Y-92582419D01*
X177389122Y-91677657D02*
X177436741Y-91630038D01*
X177436741Y-91630038D02*
X177531979Y-91582419D01*
X177531979Y-91582419D02*
X177770074Y-91582419D01*
X177770074Y-91582419D02*
X177865312Y-91630038D01*
X177865312Y-91630038D02*
X177912931Y-91677657D01*
X177912931Y-91677657D02*
X177960550Y-91772895D01*
X177960550Y-91772895D02*
X177960550Y-91868133D01*
X177960550Y-91868133D02*
X177912931Y-92010990D01*
X177912931Y-92010990D02*
X177341503Y-92582419D01*
X177341503Y-92582419D02*
X177960550Y-92582419D01*
X178865312Y-91582419D02*
X178389122Y-91582419D01*
X178389122Y-91582419D02*
X178341503Y-92058609D01*
X178341503Y-92058609D02*
X178389122Y-92010990D01*
X178389122Y-92010990D02*
X178484360Y-91963371D01*
X178484360Y-91963371D02*
X178722455Y-91963371D01*
X178722455Y-91963371D02*
X178817693Y-92010990D01*
X178817693Y-92010990D02*
X178865312Y-92058609D01*
X178865312Y-92058609D02*
X178912931Y-92153847D01*
X178912931Y-92153847D02*
X178912931Y-92391942D01*
X178912931Y-92391942D02*
X178865312Y-92487180D01*
X178865312Y-92487180D02*
X178817693Y-92534800D01*
X178817693Y-92534800D02*
X178722455Y-92582419D01*
X178722455Y-92582419D02*
X178484360Y-92582419D01*
X178484360Y-92582419D02*
X178389122Y-92534800D01*
X178389122Y-92534800D02*
X178341503Y-92487180D01*
X134923884Y-101472419D02*
X134923884Y-100472419D01*
X134923884Y-100472419D02*
X135304836Y-100472419D01*
X135304836Y-100472419D02*
X135400074Y-100520038D01*
X135400074Y-100520038D02*
X135447693Y-100567657D01*
X135447693Y-100567657D02*
X135495312Y-100662895D01*
X135495312Y-100662895D02*
X135495312Y-100805752D01*
X135495312Y-100805752D02*
X135447693Y-100900990D01*
X135447693Y-100900990D02*
X135400074Y-100948609D01*
X135400074Y-100948609D02*
X135304836Y-100996228D01*
X135304836Y-100996228D02*
X134923884Y-100996228D01*
X135923884Y-101472419D02*
X135923884Y-100805752D01*
X135923884Y-100472419D02*
X135876265Y-100520038D01*
X135876265Y-100520038D02*
X135923884Y-100567657D01*
X135923884Y-100567657D02*
X135971503Y-100520038D01*
X135971503Y-100520038D02*
X135923884Y-100472419D01*
X135923884Y-100472419D02*
X135923884Y-100567657D01*
X136400074Y-100805752D02*
X136400074Y-101472419D01*
X136400074Y-100900990D02*
X136447693Y-100853371D01*
X136447693Y-100853371D02*
X136542931Y-100805752D01*
X136542931Y-100805752D02*
X136685788Y-100805752D01*
X136685788Y-100805752D02*
X136781026Y-100853371D01*
X136781026Y-100853371D02*
X136828645Y-100948609D01*
X136828645Y-100948609D02*
X136828645Y-101472419D01*
X138590550Y-101472419D02*
X138019122Y-101472419D01*
X138304836Y-101472419D02*
X138304836Y-100472419D01*
X138304836Y-100472419D02*
X138209598Y-100615276D01*
X138209598Y-100615276D02*
X138114360Y-100710514D01*
X138114360Y-100710514D02*
X138019122Y-100758133D01*
X138923884Y-100472419D02*
X139542931Y-100472419D01*
X139542931Y-100472419D02*
X139209598Y-100853371D01*
X139209598Y-100853371D02*
X139352455Y-100853371D01*
X139352455Y-100853371D02*
X139447693Y-100900990D01*
X139447693Y-100900990D02*
X139495312Y-100948609D01*
X139495312Y-100948609D02*
X139542931Y-101043847D01*
X139542931Y-101043847D02*
X139542931Y-101281942D01*
X139542931Y-101281942D02*
X139495312Y-101377180D01*
X139495312Y-101377180D02*
X139447693Y-101424800D01*
X139447693Y-101424800D02*
X139352455Y-101472419D01*
X139352455Y-101472419D02*
X139066741Y-101472419D01*
X139066741Y-101472419D02*
X138971503Y-101424800D01*
X138971503Y-101424800D02*
X138923884Y-101377180D01*
X118413884Y-63372419D02*
X118413884Y-62372419D01*
X118413884Y-62372419D02*
X118794836Y-62372419D01*
X118794836Y-62372419D02*
X118890074Y-62420038D01*
X118890074Y-62420038D02*
X118937693Y-62467657D01*
X118937693Y-62467657D02*
X118985312Y-62562895D01*
X118985312Y-62562895D02*
X118985312Y-62705752D01*
X118985312Y-62705752D02*
X118937693Y-62800990D01*
X118937693Y-62800990D02*
X118890074Y-62848609D01*
X118890074Y-62848609D02*
X118794836Y-62896228D01*
X118794836Y-62896228D02*
X118413884Y-62896228D01*
X119413884Y-63372419D02*
X119413884Y-62705752D01*
X119413884Y-62372419D02*
X119366265Y-62420038D01*
X119366265Y-62420038D02*
X119413884Y-62467657D01*
X119413884Y-62467657D02*
X119461503Y-62420038D01*
X119461503Y-62420038D02*
X119413884Y-62372419D01*
X119413884Y-62372419D02*
X119413884Y-62467657D01*
X119890074Y-62705752D02*
X119890074Y-63372419D01*
X119890074Y-62800990D02*
X119937693Y-62753371D01*
X119937693Y-62753371D02*
X120032931Y-62705752D01*
X120032931Y-62705752D02*
X120175788Y-62705752D01*
X120175788Y-62705752D02*
X120271026Y-62753371D01*
X120271026Y-62753371D02*
X120318645Y-62848609D01*
X120318645Y-62848609D02*
X120318645Y-63372419D01*
X122080550Y-63372419D02*
X121509122Y-63372419D01*
X121794836Y-63372419D02*
X121794836Y-62372419D01*
X121794836Y-62372419D02*
X121699598Y-62515276D01*
X121699598Y-62515276D02*
X121604360Y-62610514D01*
X121604360Y-62610514D02*
X121509122Y-62658133D01*
D11*
X144908000Y-73999819D02*
X144908000Y-74237914D01*
X144669905Y-74142676D02*
X144908000Y-74237914D01*
X144908000Y-74237914D02*
X145146095Y-74142676D01*
X144765143Y-74428390D02*
X144908000Y-74237914D01*
X144908000Y-74237914D02*
X145050857Y-74428390D01*
X144908000Y-73999819D02*
X144908000Y-74237914D01*
X144669905Y-74142676D02*
X144908000Y-74237914D01*
X144908000Y-74237914D02*
X145146095Y-74142676D01*
X144765143Y-74428390D02*
X144908000Y-74237914D01*
X144908000Y-74237914D02*
X145050857Y-74428390D01*
D12*
%TO.C,J2*%
X137160000Y-96410000D02*
X165210000Y-96410000D01*
X165210000Y-99170000D02*
X165210000Y-96410000D01*
X137160000Y-99170000D02*
X137160000Y-96410000D01*
X137160000Y-99170000D02*
X165210000Y-99170000D01*
X135890000Y-99170000D02*
X134510000Y-99170000D01*
X134510000Y-99170000D02*
X134510000Y-97790000D01*
D13*
%TO.C,U1*%
G36*
X145289000Y-78535500D02*
G01*
X145035000Y-78535500D01*
X145035000Y-78154500D01*
X145289000Y-78154500D01*
X145289000Y-78535500D01*
G37*
G36*
X149635499Y-80755000D02*
G01*
X149254499Y-80755000D01*
X149254499Y-80501000D01*
X149635499Y-80501000D01*
X149635499Y-80755000D01*
G37*
G36*
X152655000Y-77335500D02*
G01*
X152401000Y-77335500D01*
X152401000Y-76954500D01*
X152655000Y-76954500D01*
X152655000Y-77335500D01*
G37*
G36*
X150035501Y-73389000D02*
G01*
X149654501Y-73389000D01*
X149654501Y-73135000D01*
X150035501Y-73135000D01*
X150035501Y-73389000D01*
G37*
D14*
X145720800Y-80069200D02*
X146210659Y-80069200D01*
X151969200Y-80069200D02*
X151969200Y-79579341D01*
X151969200Y-73820800D02*
X151479341Y-73820800D01*
X145720800Y-73820800D02*
X145720800Y-74310659D01*
X145720800Y-79579341D02*
X145720800Y-80069200D01*
X151479341Y-80069200D02*
X151969200Y-80069200D01*
X151969200Y-74310659D02*
X151969200Y-73820800D01*
X146210659Y-73820800D02*
X145720800Y-73820800D01*
D12*
%TO.C,J4*%
X163940000Y-55770000D02*
X163940000Y-57150000D01*
X162560000Y-55770000D02*
X163940000Y-55770000D01*
X161290000Y-55770000D02*
X133240000Y-55770000D01*
X161290000Y-55770000D02*
X161290000Y-58530000D01*
X133240000Y-55770000D02*
X133240000Y-58530000D01*
X161290000Y-58530000D02*
X133240000Y-58530000D01*
%TO.C,J3*%
X172830000Y-92820000D02*
X171450000Y-92820000D01*
X172830000Y-91440000D02*
X172830000Y-92820000D01*
X172830000Y-90170000D02*
X172830000Y-62120000D01*
X172830000Y-90170000D02*
X170070000Y-90170000D01*
X172830000Y-62120000D02*
X170070000Y-62120000D01*
X170070000Y-90170000D02*
X170070000Y-62120000D01*
%TO.C,J1*%
X124350000Y-62120000D02*
X125730000Y-62120000D01*
X124350000Y-63500000D02*
X124350000Y-62120000D01*
X124350000Y-64770000D02*
X124350000Y-92820000D01*
X124350000Y-64770000D02*
X127110000Y-64770000D01*
X124350000Y-92820000D02*
X127110000Y-92820000D01*
X127110000Y-64770000D02*
X127110000Y-92820000D01*
%TD*%
M02*
