%TF.GenerationSoftware,KiCad,Pcbnew,9.0.1*%
%TF.CreationDate,2025-08-21T20:12:04-04:00*%
%TF.ProjectId,STM32WL33CC1,53544d33-3257-44c3-9333-4343312e6b69,rev?*%
%TF.SameCoordinates,Original*%
%TF.FileFunction,Copper,L2,Bot*%
%TF.FilePolarity,Positive*%
%FSLAX46Y46*%
G04 Gerber Fmt 4.6, Leading zero omitted, Abs format (unit mm)*
G04 Created by KiCad (PCBNEW 9.0.1) date 2025-08-21 20:12:04*
%MOMM*%
%LPD*%
G01*
G04 APERTURE LIST*
%TA.AperFunction,ComponentPad*%
%ADD10C,1.700000*%
%TD*%
%TA.AperFunction,ComponentPad*%
%ADD11R,1.700000X1.700000*%
%TD*%
G04 APERTURE END LIST*
D10*
%TO.P,J2,12,Pin_12*%
%TO.N,Pin 24*%
X163830000Y-97790000D03*
%TO.P,J2,11,Pin_11*%
%TO.N,Pin 23*%
X161290000Y-97790000D03*
%TO.P,J2,10,Pin_10*%
%TO.N,Pin 22*%
X158750000Y-97790000D03*
%TO.P,J2,9,Pin_9*%
%TO.N,Pin 21*%
X156210000Y-97790000D03*
%TO.P,J2,8,Pin_8*%
%TO.N,Pin 20*%
X153670000Y-97790000D03*
%TO.P,J2,7,Pin_7*%
%TO.N,Pin 19*%
X151130000Y-97790000D03*
%TO.P,J2,6,Pin_6*%
%TO.N,Pin 18*%
X148590000Y-97790000D03*
%TO.P,J2,5,Pin_5*%
%TO.N,Pin 17*%
X146050000Y-97790000D03*
%TO.P,J2,4,Pin_4*%
%TO.N,Pin 16*%
X143510000Y-97790000D03*
%TO.P,J2,3,Pin_3*%
%TO.N,Pin 15*%
X140970000Y-97790000D03*
%TO.P,J2,2,Pin_2*%
%TO.N,Pin 14*%
X138430000Y-97790000D03*
D11*
%TO.P,J2,1,Pin_1*%
%TO.N,Pin 13*%
X135890000Y-97790000D03*
%TD*%
%TO.P,J4,1,Pin_1*%
%TO.N,Pin 37*%
X162560000Y-57150000D03*
D10*
%TO.P,J4,2,Pin_2*%
%TO.N,Pin 38*%
X160020000Y-57150000D03*
%TO.P,J4,3,Pin_3*%
%TO.N,Pin 39*%
X157480000Y-57150000D03*
%TO.P,J4,4,Pin_4*%
%TO.N,Pin 40*%
X154940000Y-57150000D03*
%TO.P,J4,5,Pin_5*%
%TO.N,Pin 41*%
X152400000Y-57150000D03*
%TO.P,J4,6,Pin_6*%
%TO.N,Pin 42*%
X149860000Y-57150000D03*
%TO.P,J4,7,Pin_7*%
%TO.N,Pin 43*%
X147320000Y-57150000D03*
%TO.P,J4,8,Pin_8*%
%TO.N,Pin 44*%
X144780000Y-57150000D03*
%TO.P,J4,9,Pin_9*%
%TO.N,Pin 45*%
X142240000Y-57150000D03*
%TO.P,J4,10,Pin_10*%
%TO.N,Pin 46*%
X139700000Y-57150000D03*
%TO.P,J4,11,Pin_11*%
%TO.N,Pin 47*%
X137160000Y-57150000D03*
%TO.P,J4,12,Pin_12*%
%TO.N,Pin 48*%
X134620000Y-57150000D03*
%TD*%
D11*
%TO.P,J3,1,Pin_1*%
%TO.N,Pin 25*%
X171450000Y-91440000D03*
D10*
%TO.P,J3,2,Pin_2*%
%TO.N,Pin 26*%
X171450000Y-88900000D03*
%TO.P,J3,3,Pin_3*%
%TO.N,Pin 27*%
X171450000Y-86360000D03*
%TO.P,J3,4,Pin_4*%
%TO.N,Pin 28*%
X171450000Y-83820000D03*
%TO.P,J3,5,Pin_5*%
%TO.N,Pin 29*%
X171450000Y-81280000D03*
%TO.P,J3,6,Pin_6*%
%TO.N,Pin 30*%
X171450000Y-78740000D03*
%TO.P,J3,7,Pin_7*%
%TO.N,Pin 31*%
X171450000Y-76200000D03*
%TO.P,J3,8,Pin_8*%
%TO.N,Pin 32*%
X171450000Y-73660000D03*
%TO.P,J3,9,Pin_9*%
%TO.N,Pin 33*%
X171450000Y-71120000D03*
%TO.P,J3,10,Pin_10*%
%TO.N,Pin 34*%
X171450000Y-68580000D03*
%TO.P,J3,11,Pin_11*%
%TO.N,Pin 35*%
X171450000Y-66040000D03*
%TO.P,J3,12,Pin_12*%
%TO.N,Pin 36*%
X171450000Y-63500000D03*
%TD*%
D11*
%TO.P,J1,1,Pin_1*%
%TO.N,Pin 1*%
X125730000Y-63500000D03*
D10*
%TO.P,J1,2,Pin_2*%
%TO.N,Pin 2*%
X125730000Y-66040000D03*
%TO.P,J1,3,Pin_3*%
%TO.N,Pin 3*%
X125730000Y-68580000D03*
%TO.P,J1,4,Pin_4*%
%TO.N,Pin 4*%
X125730000Y-71120000D03*
%TO.P,J1,5,Pin_5*%
%TO.N,Pin 5*%
X125730000Y-73660000D03*
%TO.P,J1,6,Pin_6*%
%TO.N,Pin 6*%
X125730000Y-76200000D03*
%TO.P,J1,7,Pin_7*%
%TO.N,Pin 7*%
X125730000Y-78740000D03*
%TO.P,J1,8,Pin_8*%
%TO.N,Pin 8*%
X125730000Y-81280000D03*
%TO.P,J1,9,Pin_9*%
%TO.N,Pin 9*%
X125730000Y-83820000D03*
%TO.P,J1,10,Pin_10*%
%TO.N,Pin 10*%
X125730000Y-86360000D03*
%TO.P,J1,11,Pin_11*%
%TO.N,Pin 11*%
X125730000Y-88900000D03*
%TO.P,J1,12,Pin_12*%
%TO.N,Pin 12*%
X125730000Y-91440000D03*
%TD*%
M02*
