%TF.GenerationSoftware,KiCad,Pcbnew,9.0.1*%
%TF.CreationDate,2025-08-21T20:12:04-04:00*%
%TF.ProjectId,STM32WL33CC1,53544d33-3257-44c3-9333-4343312e6b69,rev?*%
%TF.SameCoordinates,Original*%
%TF.FileFunction,Paste,Top*%
%TF.FilePolarity,Positive*%
%FSLAX46Y46*%
G04 Gerber Fmt 4.6, Leading zero omitted, Abs format (unit mm)*
G04 Created by KiCad (PCBNEW 9.0.1) date 2025-08-21 20:12:04*
%MOMM*%
%LPD*%
G01*
G04 APERTURE LIST*
%ADD10C,0.000000*%
%ADD11R,0.863600X0.203200*%
%ADD12R,0.203200X0.863600*%
%ADD13R,4.495800X4.495800*%
G04 APERTURE END LIST*
D10*
%TO.C,U1*%
G36*
X147995700Y-76095700D02*
G01*
X146697100Y-76095700D01*
X146697100Y-74797100D01*
X147995700Y-74797100D01*
X147995700Y-76095700D01*
G37*
G36*
X147995700Y-77594300D02*
G01*
X146697100Y-77594300D01*
X146697100Y-76295700D01*
X147995700Y-76295700D01*
X147995700Y-77594300D01*
G37*
G36*
X147995700Y-79092900D02*
G01*
X146697100Y-79092900D01*
X146697100Y-77794300D01*
X147995700Y-77794300D01*
X147995700Y-79092900D01*
G37*
G36*
X149494300Y-76095700D02*
G01*
X148195700Y-76095700D01*
X148195700Y-74797100D01*
X149494300Y-74797100D01*
X149494300Y-76095700D01*
G37*
G36*
X149494300Y-77594300D02*
G01*
X148195700Y-77594300D01*
X148195700Y-76295700D01*
X149494300Y-76295700D01*
X149494300Y-77594300D01*
G37*
G36*
X149494300Y-79092900D02*
G01*
X148195700Y-79092900D01*
X148195700Y-77794300D01*
X149494300Y-77794300D01*
X149494300Y-79092900D01*
G37*
G36*
X150992900Y-76095700D02*
G01*
X149694300Y-76095700D01*
X149694300Y-74797100D01*
X150992900Y-74797100D01*
X150992900Y-76095700D01*
G37*
G36*
X150992900Y-77594300D02*
G01*
X149694300Y-77594300D01*
X149694300Y-76295700D01*
X150992900Y-76295700D01*
X150992900Y-77594300D01*
G37*
G36*
X150992900Y-79092900D02*
G01*
X149694300Y-79092900D01*
X149694300Y-77794300D01*
X150992900Y-77794300D01*
X150992900Y-79092900D01*
G37*
%TD*%
D11*
%TO.C,U1*%
X145974800Y-74744999D03*
X145974800Y-75145001D03*
X145974800Y-75545000D03*
X145974800Y-75944999D03*
X145974800Y-76345001D03*
X145974800Y-76745000D03*
X145974800Y-77145000D03*
X145974800Y-77544999D03*
X145974800Y-77945001D03*
X145974800Y-78345000D03*
X145974800Y-78744999D03*
X145974800Y-79145001D03*
D12*
X146644999Y-79815200D03*
X147045001Y-79815200D03*
X147445000Y-79815200D03*
X147844999Y-79815200D03*
X148245001Y-79815200D03*
X148645000Y-79815200D03*
X149045000Y-79815200D03*
X149444999Y-79815200D03*
X149845001Y-79815200D03*
X150245000Y-79815200D03*
X150644999Y-79815200D03*
X151045001Y-79815200D03*
D11*
X151715200Y-79145001D03*
X151715200Y-78744999D03*
X151715200Y-78345000D03*
X151715200Y-77945001D03*
X151715200Y-77544999D03*
X151715200Y-77145000D03*
X151715200Y-76745000D03*
X151715200Y-76345001D03*
X151715200Y-75944999D03*
X151715200Y-75545000D03*
X151715200Y-75145001D03*
X151715200Y-74744999D03*
D12*
X151045001Y-74074800D03*
X150644999Y-74074800D03*
X150245000Y-74074800D03*
X149845001Y-74074800D03*
X149444999Y-74074800D03*
X149045000Y-74074800D03*
X148645000Y-74074800D03*
X148245001Y-74074800D03*
X147844999Y-74074800D03*
X147445000Y-74074800D03*
X147045001Y-74074800D03*
X146644999Y-74074800D03*
D13*
X148845000Y-76945000D03*
%TD*%
M02*
