%TF.GenerationSoftware,KiCad,Pcbnew,9.0.1*%
%TF.CreationDate,2025-07-19T07:25:43-04:00*%
%TF.ProjectId,SOT23,534f5432-332e-46b6-9963-61645f706362,rev?*%
%TF.SameCoordinates,Original*%
%TF.FileFunction,Copper,L1,Top*%
%TF.FilePolarity,Positive*%
%FSLAX46Y46*%
G04 Gerber Fmt 4.6, Leading zero omitted, Abs format (unit mm)*
G04 Created by KiCad (PCBNEW 9.0.1) date 2025-07-19 07:25:43*
%MOMM*%
%LPD*%
G01*
G04 APERTURE LIST*
G04 Aperture macros list*
%AMRoundRect*
0 Rectangle with rounded corners*
0 $1 Rounding radius*
0 $2 $3 $4 $5 $6 $7 $8 $9 X,Y pos of 4 corners*
0 Add a 4 corners polygon primitive as box body*
4,1,4,$2,$3,$4,$5,$6,$7,$8,$9,$2,$3,0*
0 Add four circle primitives for the rounded corners*
1,1,$1+$1,$2,$3*
1,1,$1+$1,$4,$5*
1,1,$1+$1,$6,$7*
1,1,$1+$1,$8,$9*
0 Add four rect primitives between the rounded corners*
20,1,$1+$1,$2,$3,$4,$5,0*
20,1,$1+$1,$4,$5,$6,$7,0*
20,1,$1+$1,$6,$7,$8,$9,0*
20,1,$1+$1,$8,$9,$2,$3,0*%
G04 Aperture macros list end*
%TA.AperFunction,ComponentPad*%
%ADD10R,1.700000X1.700000*%
%TD*%
%TA.AperFunction,ComponentPad*%
%ADD11C,1.700000*%
%TD*%
%TA.AperFunction,SMDPad,CuDef*%
%ADD12RoundRect,0.150000X-0.587500X-0.150000X0.587500X-0.150000X0.587500X0.150000X-0.587500X0.150000X0*%
%TD*%
%TA.AperFunction,Conductor*%
%ADD13C,0.200000*%
%TD*%
G04 APERTURE END LIST*
D10*
%TO.P,J1,1,Pin_1*%
%TO.N,Net-(J1-Pin_1)*%
X138430000Y-82550000D03*
D11*
%TO.P,J1,2,Pin_2*%
%TO.N,Net-(J1-Pin_2)*%
X138430000Y-85090000D03*
%TO.P,J1,3,Pin_3*%
%TO.N,Net-(J1-Pin_3)*%
X138430000Y-87630000D03*
%TO.P,J1,4,Pin_4*%
%TO.N,Net-(J1-Pin_4)*%
X138430000Y-90170000D03*
%TO.P,J1,5,Pin_5*%
%TO.N,Net-(J1-Pin_5)*%
X138430000Y-92710000D03*
%TO.P,J1,6,Pin_6*%
%TO.N,Net-(J1-Pin_6)*%
X138430000Y-95250000D03*
%TO.P,J1,7,Pin_7*%
%TO.N,Net-(J1-Pin_7)*%
X138430000Y-97790000D03*
%TO.P,J1,8,Pin_8*%
%TO.N,Net-(J1-Pin_8)*%
X138430000Y-100330000D03*
%TD*%
D12*
%TO.P,Q4,1,G*%
%TO.N,Net-(J1-Pin_7)*%
X149255000Y-100650000D03*
%TO.P,Q4,2,S*%
%TO.N,Net-(J1-Pin_8)*%
X149255000Y-102550000D03*
%TO.P,Q4,3,D*%
%TO.N,Net-(J2-Pin_1)*%
X151130000Y-101600000D03*
%TD*%
%TO.P,Q3,1,G*%
%TO.N,Net-(J1-Pin_5)*%
X149255000Y-93030000D03*
%TO.P,Q3,2,S*%
%TO.N,Net-(J1-Pin_6)*%
X149255000Y-94930000D03*
%TO.P,Q3,3,D*%
%TO.N,Net-(J2-Pin_2)*%
X151130000Y-93980000D03*
%TD*%
%TO.P,Q2,1,G*%
%TO.N,Net-(J1-Pin_3)*%
X149255000Y-86680000D03*
%TO.P,Q2,2,S*%
%TO.N,Net-(J1-Pin_4)*%
X149255000Y-88580000D03*
%TO.P,Q2,3,D*%
%TO.N,Net-(J2-Pin_3)*%
X151130000Y-87630000D03*
%TD*%
%TO.P,Q1,1,G*%
%TO.N,Net-(J1-Pin_1)*%
X149255000Y-78740000D03*
%TO.P,Q1,2,S*%
%TO.N,Net-(J1-Pin_2)*%
X149255000Y-80640000D03*
%TO.P,Q1,3,D*%
%TO.N,Net-(J2-Pin_4)*%
X151130000Y-79690000D03*
%TD*%
D10*
%TO.P,J2,1,Pin_1*%
%TO.N,Net-(J2-Pin_1)*%
X162560000Y-93980000D03*
D11*
%TO.P,J2,2,Pin_2*%
%TO.N,Net-(J2-Pin_2)*%
X162560000Y-91440000D03*
%TO.P,J2,3,Pin_3*%
%TO.N,Net-(J2-Pin_3)*%
X162560000Y-88900000D03*
%TO.P,J2,4,Pin_4*%
%TO.N,Net-(J2-Pin_4)*%
X162560000Y-86360000D03*
%TD*%
D13*
%TO.N,Net-(J2-Pin_4)*%
X151130000Y-79690000D02*
X155890000Y-79690000D01*
X155890000Y-79690000D02*
X162560000Y-86360000D01*
%TO.N,Net-(J2-Pin_3)*%
X151130000Y-87630000D02*
X161290000Y-87630000D01*
X161290000Y-87630000D02*
X162560000Y-88900000D01*
%TO.N,Net-(J2-Pin_2)*%
X151130000Y-93980000D02*
X160020000Y-93980000D01*
X160020000Y-93980000D02*
X162560000Y-91440000D01*
%TO.N,Net-(J2-Pin_1)*%
X151130000Y-101600000D02*
X154940000Y-101600000D01*
X154940000Y-101600000D02*
X162560000Y-93980000D01*
%TO.N,Net-(J1-Pin_8)*%
X149255000Y-102550000D02*
X140650000Y-102550000D01*
X140650000Y-102550000D02*
X138430000Y-100330000D01*
%TO.N,Net-(J1-Pin_7)*%
X149255000Y-100650000D02*
X141290000Y-100650000D01*
X141290000Y-100650000D02*
X138430000Y-97790000D01*
%TO.N,Net-(J1-Pin_6)*%
X149255000Y-94930000D02*
X138750000Y-94930000D01*
X138750000Y-94930000D02*
X138430000Y-95250000D01*
%TO.N,Net-(J1-Pin_5)*%
X149255000Y-93030000D02*
X138750000Y-93030000D01*
X138750000Y-93030000D02*
X138430000Y-92710000D01*
%TO.N,Net-(J1-Pin_4)*%
X149255000Y-88580000D02*
X140020000Y-88580000D01*
X140020000Y-88580000D02*
X138430000Y-90170000D01*
%TO.N,Net-(J1-Pin_3)*%
X149255000Y-86680000D02*
X139380000Y-86680000D01*
X139380000Y-86680000D02*
X138430000Y-87630000D01*
%TO.N,Net-(J1-Pin_2)*%
X149255000Y-80640000D02*
X142880000Y-80640000D01*
X142880000Y-80640000D02*
X138430000Y-85090000D01*
%TO.N,Net-(J1-Pin_1)*%
X149255000Y-78740000D02*
X142240000Y-78740000D01*
X142240000Y-78740000D02*
X138430000Y-82550000D01*
%TO.N,Net-(J1-Pin_5)*%
X138925000Y-92215000D02*
X138430000Y-92710000D01*
%TO.N,Net-(J1-Pin_1)*%
X138845000Y-82965000D02*
X138430000Y-82550000D01*
%TD*%
M02*
