%TF.GenerationSoftware,KiCad,Pcbnew,9.0.1*%
%TF.CreationDate,2025-07-19T06:57:49-04:00*%
%TF.ProjectId,MCP9808,4d435039-3830-4382-9e6b-696361645f70,rev?*%
%TF.SameCoordinates,Original*%
%TF.FileFunction,Legend,Top*%
%TF.FilePolarity,Positive*%
%FSLAX46Y46*%
G04 Gerber Fmt 4.6, Leading zero omitted, Abs format (unit mm)*
G04 Created by KiCad (PCBNEW 9.0.1) date 2025-07-19 06:57:49*
%MOMM*%
%LPD*%
G01*
G04 APERTURE LIST*
%ADD10C,0.100000*%
%ADD11C,0.120000*%
G04 APERTURE END LIST*
D10*
X148100074Y-101472419D02*
X147623884Y-101472419D01*
X147623884Y-101472419D02*
X147623884Y-100472419D01*
X148861979Y-101472419D02*
X148861979Y-100948609D01*
X148861979Y-100948609D02*
X148814360Y-100853371D01*
X148814360Y-100853371D02*
X148719122Y-100805752D01*
X148719122Y-100805752D02*
X148528646Y-100805752D01*
X148528646Y-100805752D02*
X148433408Y-100853371D01*
X148861979Y-101424800D02*
X148766741Y-101472419D01*
X148766741Y-101472419D02*
X148528646Y-101472419D01*
X148528646Y-101472419D02*
X148433408Y-101424800D01*
X148433408Y-101424800D02*
X148385789Y-101329561D01*
X148385789Y-101329561D02*
X148385789Y-101234323D01*
X148385789Y-101234323D02*
X148433408Y-101139085D01*
X148433408Y-101139085D02*
X148528646Y-101091466D01*
X148528646Y-101091466D02*
X148766741Y-101091466D01*
X148766741Y-101091466D02*
X148861979Y-101043847D01*
X149338170Y-101472419D02*
X149338170Y-100805752D01*
X149338170Y-100996228D02*
X149385789Y-100900990D01*
X149385789Y-100900990D02*
X149433408Y-100853371D01*
X149433408Y-100853371D02*
X149528646Y-100805752D01*
X149528646Y-100805752D02*
X149623884Y-100805752D01*
X149957218Y-101472419D02*
X149957218Y-100472419D01*
X150052456Y-101091466D02*
X150338170Y-101472419D01*
X150338170Y-100805752D02*
X149957218Y-101186704D01*
X150719123Y-101424800D02*
X150814361Y-101472419D01*
X150814361Y-101472419D02*
X151004837Y-101472419D01*
X151004837Y-101472419D02*
X151100075Y-101424800D01*
X151100075Y-101424800D02*
X151147694Y-101329561D01*
X151147694Y-101329561D02*
X151147694Y-101281942D01*
X151147694Y-101281942D02*
X151100075Y-101186704D01*
X151100075Y-101186704D02*
X151004837Y-101139085D01*
X151004837Y-101139085D02*
X150861980Y-101139085D01*
X150861980Y-101139085D02*
X150766742Y-101091466D01*
X150766742Y-101091466D02*
X150719123Y-100996228D01*
X150719123Y-100996228D02*
X150719123Y-100948609D01*
X150719123Y-100948609D02*
X150766742Y-100853371D01*
X150766742Y-100853371D02*
X150861980Y-100805752D01*
X150861980Y-100805752D02*
X151004837Y-100805752D01*
X151004837Y-100805752D02*
X151100075Y-100853371D01*
X151576266Y-100805752D02*
X151576266Y-101805752D01*
X151576266Y-100853371D02*
X151671504Y-100805752D01*
X151671504Y-100805752D02*
X151861980Y-100805752D01*
X151861980Y-100805752D02*
X151957218Y-100853371D01*
X151957218Y-100853371D02*
X152004837Y-100900990D01*
X152004837Y-100900990D02*
X152052456Y-100996228D01*
X152052456Y-100996228D02*
X152052456Y-101281942D01*
X152052456Y-101281942D02*
X152004837Y-101377180D01*
X152004837Y-101377180D02*
X151957218Y-101424800D01*
X151957218Y-101424800D02*
X151861980Y-101472419D01*
X151861980Y-101472419D02*
X151671504Y-101472419D01*
X151671504Y-101472419D02*
X151576266Y-101424800D01*
X152909599Y-100805752D02*
X152909599Y-101472419D01*
X152481028Y-100805752D02*
X152481028Y-101329561D01*
X152481028Y-101329561D02*
X152528647Y-101424800D01*
X152528647Y-101424800D02*
X152623885Y-101472419D01*
X152623885Y-101472419D02*
X152766742Y-101472419D01*
X152766742Y-101472419D02*
X152861980Y-101424800D01*
X152861980Y-101424800D02*
X152909599Y-101377180D01*
X153385790Y-101472419D02*
X153385790Y-100805752D01*
X153385790Y-100996228D02*
X153433409Y-100900990D01*
X153433409Y-100900990D02*
X153481028Y-100853371D01*
X153481028Y-100853371D02*
X153576266Y-100805752D01*
X153576266Y-100805752D02*
X153671504Y-100805752D01*
X155242933Y-101472419D02*
X154766743Y-101472419D01*
X154766743Y-101472419D02*
X154766743Y-100472419D01*
X156004838Y-101472419D02*
X156004838Y-100948609D01*
X156004838Y-100948609D02*
X155957219Y-100853371D01*
X155957219Y-100853371D02*
X155861981Y-100805752D01*
X155861981Y-100805752D02*
X155671505Y-100805752D01*
X155671505Y-100805752D02*
X155576267Y-100853371D01*
X156004838Y-101424800D02*
X155909600Y-101472419D01*
X155909600Y-101472419D02*
X155671505Y-101472419D01*
X155671505Y-101472419D02*
X155576267Y-101424800D01*
X155576267Y-101424800D02*
X155528648Y-101329561D01*
X155528648Y-101329561D02*
X155528648Y-101234323D01*
X155528648Y-101234323D02*
X155576267Y-101139085D01*
X155576267Y-101139085D02*
X155671505Y-101091466D01*
X155671505Y-101091466D02*
X155909600Y-101091466D01*
X155909600Y-101091466D02*
X156004838Y-101043847D01*
X156481029Y-101472419D02*
X156481029Y-100472419D01*
X156481029Y-100853371D02*
X156576267Y-100805752D01*
X156576267Y-100805752D02*
X156766743Y-100805752D01*
X156766743Y-100805752D02*
X156861981Y-100853371D01*
X156861981Y-100853371D02*
X156909600Y-100900990D01*
X156909600Y-100900990D02*
X156957219Y-100996228D01*
X156957219Y-100996228D02*
X156957219Y-101281942D01*
X156957219Y-101281942D02*
X156909600Y-101377180D01*
X156909600Y-101377180D02*
X156861981Y-101424800D01*
X156861981Y-101424800D02*
X156766743Y-101472419D01*
X156766743Y-101472419D02*
X156576267Y-101472419D01*
X156576267Y-101472419D02*
X156481029Y-101424800D01*
X157783884Y-98932419D02*
X157783884Y-97932419D01*
X157783884Y-97932419D02*
X158164836Y-97932419D01*
X158164836Y-97932419D02*
X158260074Y-97980038D01*
X158260074Y-97980038D02*
X158307693Y-98027657D01*
X158307693Y-98027657D02*
X158355312Y-98122895D01*
X158355312Y-98122895D02*
X158355312Y-98265752D01*
X158355312Y-98265752D02*
X158307693Y-98360990D01*
X158307693Y-98360990D02*
X158260074Y-98408609D01*
X158260074Y-98408609D02*
X158164836Y-98456228D01*
X158164836Y-98456228D02*
X157783884Y-98456228D01*
X158783884Y-98932419D02*
X158783884Y-98265752D01*
X158783884Y-97932419D02*
X158736265Y-97980038D01*
X158736265Y-97980038D02*
X158783884Y-98027657D01*
X158783884Y-98027657D02*
X158831503Y-97980038D01*
X158831503Y-97980038D02*
X158783884Y-97932419D01*
X158783884Y-97932419D02*
X158783884Y-98027657D01*
X159260074Y-98265752D02*
X159260074Y-98932419D01*
X159260074Y-98360990D02*
X159307693Y-98313371D01*
X159307693Y-98313371D02*
X159402931Y-98265752D01*
X159402931Y-98265752D02*
X159545788Y-98265752D01*
X159545788Y-98265752D02*
X159641026Y-98313371D01*
X159641026Y-98313371D02*
X159688645Y-98408609D01*
X159688645Y-98408609D02*
X159688645Y-98932419D01*
X161402931Y-97932419D02*
X160926741Y-97932419D01*
X160926741Y-97932419D02*
X160879122Y-98408609D01*
X160879122Y-98408609D02*
X160926741Y-98360990D01*
X160926741Y-98360990D02*
X161021979Y-98313371D01*
X161021979Y-98313371D02*
X161260074Y-98313371D01*
X161260074Y-98313371D02*
X161355312Y-98360990D01*
X161355312Y-98360990D02*
X161402931Y-98408609D01*
X161402931Y-98408609D02*
X161450550Y-98503847D01*
X161450550Y-98503847D02*
X161450550Y-98741942D01*
X161450550Y-98741942D02*
X161402931Y-98837180D01*
X161402931Y-98837180D02*
X161355312Y-98884800D01*
X161355312Y-98884800D02*
X161260074Y-98932419D01*
X161260074Y-98932419D02*
X161021979Y-98932419D01*
X161021979Y-98932419D02*
X160926741Y-98884800D01*
X160926741Y-98884800D02*
X160879122Y-98837180D01*
X148893884Y-88772419D02*
X148893884Y-87772419D01*
X148893884Y-87772419D02*
X149274836Y-87772419D01*
X149274836Y-87772419D02*
X149370074Y-87820038D01*
X149370074Y-87820038D02*
X149417693Y-87867657D01*
X149417693Y-87867657D02*
X149465312Y-87962895D01*
X149465312Y-87962895D02*
X149465312Y-88105752D01*
X149465312Y-88105752D02*
X149417693Y-88200990D01*
X149417693Y-88200990D02*
X149370074Y-88248609D01*
X149370074Y-88248609D02*
X149274836Y-88296228D01*
X149274836Y-88296228D02*
X148893884Y-88296228D01*
X149893884Y-88772419D02*
X149893884Y-88105752D01*
X149893884Y-87772419D02*
X149846265Y-87820038D01*
X149846265Y-87820038D02*
X149893884Y-87867657D01*
X149893884Y-87867657D02*
X149941503Y-87820038D01*
X149941503Y-87820038D02*
X149893884Y-87772419D01*
X149893884Y-87772419D02*
X149893884Y-87867657D01*
X150370074Y-88105752D02*
X150370074Y-88772419D01*
X150370074Y-88200990D02*
X150417693Y-88153371D01*
X150417693Y-88153371D02*
X150512931Y-88105752D01*
X150512931Y-88105752D02*
X150655788Y-88105752D01*
X150655788Y-88105752D02*
X150751026Y-88153371D01*
X150751026Y-88153371D02*
X150798645Y-88248609D01*
X150798645Y-88248609D02*
X150798645Y-88772419D01*
X152560550Y-88772419D02*
X151989122Y-88772419D01*
X152274836Y-88772419D02*
X152274836Y-87772419D01*
X152274836Y-87772419D02*
X152179598Y-87915276D01*
X152179598Y-87915276D02*
X152084360Y-88010514D01*
X152084360Y-88010514D02*
X151989122Y-88058133D01*
D11*
%TO.C,U1*%
X154940000Y-91130000D02*
X153440000Y-91130000D01*
X154940000Y-91130000D02*
X156440000Y-91130000D01*
X154940000Y-94350000D02*
X153440000Y-94350000D01*
X154940000Y-94350000D02*
X156440000Y-94350000D01*
X152727500Y-91305000D02*
X152487500Y-90975000D01*
X152967500Y-90975000D01*
X152727500Y-91305000D01*
G36*
X152727500Y-91305000D02*
G01*
X152487500Y-90975000D01*
X152967500Y-90975000D01*
X152727500Y-91305000D01*
G37*
%TO.C,J2*%
X165210000Y-99170000D02*
X163830000Y-99170000D01*
X165210000Y-97790000D02*
X165210000Y-99170000D01*
X165210000Y-96520000D02*
X165210000Y-88790000D01*
X165210000Y-96520000D02*
X162450000Y-96520000D01*
X165210000Y-88790000D02*
X162450000Y-88790000D01*
X162450000Y-96520000D02*
X162450000Y-88790000D01*
%TO.C,J1*%
X144670000Y-88790000D02*
X146050000Y-88790000D01*
X144670000Y-90170000D02*
X144670000Y-88790000D01*
X144670000Y-91440000D02*
X144670000Y-99170000D01*
X144670000Y-91440000D02*
X147430000Y-91440000D01*
X144670000Y-99170000D02*
X147430000Y-99170000D01*
X147430000Y-91440000D02*
X147430000Y-99170000D01*
%TD*%
M02*
