%TF.GenerationSoftware,KiCad,Pcbnew,9.0.1*%
%TF.CreationDate,2025-07-19T07:43:59-04:00*%
%TF.ProjectId,VEML6030,56454d4c-3630-4333-902e-6b696361645f,rev?*%
%TF.SameCoordinates,Original*%
%TF.FileFunction,Legend,Top*%
%TF.FilePolarity,Positive*%
%FSLAX46Y46*%
G04 Gerber Fmt 4.6, Leading zero omitted, Abs format (unit mm)*
G04 Created by KiCad (PCBNEW 9.0.1) date 2025-07-19 07:43:59*
%MOMM*%
%LPD*%
G01*
G04 APERTURE LIST*
%ADD10C,0.100000*%
%ADD11C,0.150000*%
%ADD12C,0.152400*%
%ADD13C,0.120000*%
G04 APERTURE END LIST*
D10*
X146830074Y-93852419D02*
X146353884Y-93852419D01*
X146353884Y-93852419D02*
X146353884Y-92852419D01*
X147591979Y-93852419D02*
X147591979Y-93328609D01*
X147591979Y-93328609D02*
X147544360Y-93233371D01*
X147544360Y-93233371D02*
X147449122Y-93185752D01*
X147449122Y-93185752D02*
X147258646Y-93185752D01*
X147258646Y-93185752D02*
X147163408Y-93233371D01*
X147591979Y-93804800D02*
X147496741Y-93852419D01*
X147496741Y-93852419D02*
X147258646Y-93852419D01*
X147258646Y-93852419D02*
X147163408Y-93804800D01*
X147163408Y-93804800D02*
X147115789Y-93709561D01*
X147115789Y-93709561D02*
X147115789Y-93614323D01*
X147115789Y-93614323D02*
X147163408Y-93519085D01*
X147163408Y-93519085D02*
X147258646Y-93471466D01*
X147258646Y-93471466D02*
X147496741Y-93471466D01*
X147496741Y-93471466D02*
X147591979Y-93423847D01*
X148068170Y-93852419D02*
X148068170Y-93185752D01*
X148068170Y-93376228D02*
X148115789Y-93280990D01*
X148115789Y-93280990D02*
X148163408Y-93233371D01*
X148163408Y-93233371D02*
X148258646Y-93185752D01*
X148258646Y-93185752D02*
X148353884Y-93185752D01*
X148687218Y-93852419D02*
X148687218Y-92852419D01*
X148782456Y-93471466D02*
X149068170Y-93852419D01*
X149068170Y-93185752D02*
X148687218Y-93566704D01*
X149449123Y-93804800D02*
X149544361Y-93852419D01*
X149544361Y-93852419D02*
X149734837Y-93852419D01*
X149734837Y-93852419D02*
X149830075Y-93804800D01*
X149830075Y-93804800D02*
X149877694Y-93709561D01*
X149877694Y-93709561D02*
X149877694Y-93661942D01*
X149877694Y-93661942D02*
X149830075Y-93566704D01*
X149830075Y-93566704D02*
X149734837Y-93519085D01*
X149734837Y-93519085D02*
X149591980Y-93519085D01*
X149591980Y-93519085D02*
X149496742Y-93471466D01*
X149496742Y-93471466D02*
X149449123Y-93376228D01*
X149449123Y-93376228D02*
X149449123Y-93328609D01*
X149449123Y-93328609D02*
X149496742Y-93233371D01*
X149496742Y-93233371D02*
X149591980Y-93185752D01*
X149591980Y-93185752D02*
X149734837Y-93185752D01*
X149734837Y-93185752D02*
X149830075Y-93233371D01*
X150306266Y-93185752D02*
X150306266Y-94185752D01*
X150306266Y-93233371D02*
X150401504Y-93185752D01*
X150401504Y-93185752D02*
X150591980Y-93185752D01*
X150591980Y-93185752D02*
X150687218Y-93233371D01*
X150687218Y-93233371D02*
X150734837Y-93280990D01*
X150734837Y-93280990D02*
X150782456Y-93376228D01*
X150782456Y-93376228D02*
X150782456Y-93661942D01*
X150782456Y-93661942D02*
X150734837Y-93757180D01*
X150734837Y-93757180D02*
X150687218Y-93804800D01*
X150687218Y-93804800D02*
X150591980Y-93852419D01*
X150591980Y-93852419D02*
X150401504Y-93852419D01*
X150401504Y-93852419D02*
X150306266Y-93804800D01*
X151639599Y-93185752D02*
X151639599Y-93852419D01*
X151211028Y-93185752D02*
X151211028Y-93709561D01*
X151211028Y-93709561D02*
X151258647Y-93804800D01*
X151258647Y-93804800D02*
X151353885Y-93852419D01*
X151353885Y-93852419D02*
X151496742Y-93852419D01*
X151496742Y-93852419D02*
X151591980Y-93804800D01*
X151591980Y-93804800D02*
X151639599Y-93757180D01*
X152115790Y-93852419D02*
X152115790Y-93185752D01*
X152115790Y-93376228D02*
X152163409Y-93280990D01*
X152163409Y-93280990D02*
X152211028Y-93233371D01*
X152211028Y-93233371D02*
X152306266Y-93185752D01*
X152306266Y-93185752D02*
X152401504Y-93185752D01*
X153972933Y-93852419D02*
X153496743Y-93852419D01*
X153496743Y-93852419D02*
X153496743Y-92852419D01*
X154734838Y-93852419D02*
X154734838Y-93328609D01*
X154734838Y-93328609D02*
X154687219Y-93233371D01*
X154687219Y-93233371D02*
X154591981Y-93185752D01*
X154591981Y-93185752D02*
X154401505Y-93185752D01*
X154401505Y-93185752D02*
X154306267Y-93233371D01*
X154734838Y-93804800D02*
X154639600Y-93852419D01*
X154639600Y-93852419D02*
X154401505Y-93852419D01*
X154401505Y-93852419D02*
X154306267Y-93804800D01*
X154306267Y-93804800D02*
X154258648Y-93709561D01*
X154258648Y-93709561D02*
X154258648Y-93614323D01*
X154258648Y-93614323D02*
X154306267Y-93519085D01*
X154306267Y-93519085D02*
X154401505Y-93471466D01*
X154401505Y-93471466D02*
X154639600Y-93471466D01*
X154639600Y-93471466D02*
X154734838Y-93423847D01*
X155211029Y-93852419D02*
X155211029Y-92852419D01*
X155211029Y-93233371D02*
X155306267Y-93185752D01*
X155306267Y-93185752D02*
X155496743Y-93185752D01*
X155496743Y-93185752D02*
X155591981Y-93233371D01*
X155591981Y-93233371D02*
X155639600Y-93280990D01*
X155639600Y-93280990D02*
X155687219Y-93376228D01*
X155687219Y-93376228D02*
X155687219Y-93661942D01*
X155687219Y-93661942D02*
X155639600Y-93757180D01*
X155639600Y-93757180D02*
X155591981Y-93804800D01*
X155591981Y-93804800D02*
X155496743Y-93852419D01*
X155496743Y-93852419D02*
X155306267Y-93852419D01*
X155306267Y-93852419D02*
X155211029Y-93804800D01*
X155243884Y-91312419D02*
X155243884Y-90312419D01*
X155243884Y-90312419D02*
X155624836Y-90312419D01*
X155624836Y-90312419D02*
X155720074Y-90360038D01*
X155720074Y-90360038D02*
X155767693Y-90407657D01*
X155767693Y-90407657D02*
X155815312Y-90502895D01*
X155815312Y-90502895D02*
X155815312Y-90645752D01*
X155815312Y-90645752D02*
X155767693Y-90740990D01*
X155767693Y-90740990D02*
X155720074Y-90788609D01*
X155720074Y-90788609D02*
X155624836Y-90836228D01*
X155624836Y-90836228D02*
X155243884Y-90836228D01*
X156243884Y-91312419D02*
X156243884Y-90645752D01*
X156243884Y-90312419D02*
X156196265Y-90360038D01*
X156196265Y-90360038D02*
X156243884Y-90407657D01*
X156243884Y-90407657D02*
X156291503Y-90360038D01*
X156291503Y-90360038D02*
X156243884Y-90312419D01*
X156243884Y-90312419D02*
X156243884Y-90407657D01*
X156720074Y-90645752D02*
X156720074Y-91312419D01*
X156720074Y-90740990D02*
X156767693Y-90693371D01*
X156767693Y-90693371D02*
X156862931Y-90645752D01*
X156862931Y-90645752D02*
X157005788Y-90645752D01*
X157005788Y-90645752D02*
X157101026Y-90693371D01*
X157101026Y-90693371D02*
X157148645Y-90788609D01*
X157148645Y-90788609D02*
X157148645Y-91312419D01*
X158815312Y-90645752D02*
X158815312Y-91312419D01*
X158577217Y-90264800D02*
X158339122Y-90979085D01*
X158339122Y-90979085D02*
X158958169Y-90979085D01*
X146353884Y-81152419D02*
X146353884Y-80152419D01*
X146353884Y-80152419D02*
X146734836Y-80152419D01*
X146734836Y-80152419D02*
X146830074Y-80200038D01*
X146830074Y-80200038D02*
X146877693Y-80247657D01*
X146877693Y-80247657D02*
X146925312Y-80342895D01*
X146925312Y-80342895D02*
X146925312Y-80485752D01*
X146925312Y-80485752D02*
X146877693Y-80580990D01*
X146877693Y-80580990D02*
X146830074Y-80628609D01*
X146830074Y-80628609D02*
X146734836Y-80676228D01*
X146734836Y-80676228D02*
X146353884Y-80676228D01*
X147353884Y-81152419D02*
X147353884Y-80485752D01*
X147353884Y-80152419D02*
X147306265Y-80200038D01*
X147306265Y-80200038D02*
X147353884Y-80247657D01*
X147353884Y-80247657D02*
X147401503Y-80200038D01*
X147401503Y-80200038D02*
X147353884Y-80152419D01*
X147353884Y-80152419D02*
X147353884Y-80247657D01*
X147830074Y-80485752D02*
X147830074Y-81152419D01*
X147830074Y-80580990D02*
X147877693Y-80533371D01*
X147877693Y-80533371D02*
X147972931Y-80485752D01*
X147972931Y-80485752D02*
X148115788Y-80485752D01*
X148115788Y-80485752D02*
X148211026Y-80533371D01*
X148211026Y-80533371D02*
X148258645Y-80628609D01*
X148258645Y-80628609D02*
X148258645Y-81152419D01*
X150020550Y-81152419D02*
X149449122Y-81152419D01*
X149734836Y-81152419D02*
X149734836Y-80152419D01*
X149734836Y-80152419D02*
X149639598Y-80295276D01*
X149639598Y-80295276D02*
X149544360Y-80390514D01*
X149544360Y-80390514D02*
X149449122Y-80438133D01*
D11*
X151260100Y-84228319D02*
X151260100Y-84466414D01*
X151022005Y-84371176D02*
X151260100Y-84466414D01*
X151260100Y-84466414D02*
X151498195Y-84371176D01*
X151117243Y-84656890D02*
X151260100Y-84466414D01*
X151260100Y-84466414D02*
X151402957Y-84656890D01*
X151260099Y-85318680D02*
X151260099Y-85080585D01*
X151498194Y-85175823D02*
X151260099Y-85080585D01*
X151260099Y-85080585D02*
X151022004Y-85175823D01*
X151402956Y-84890109D02*
X151260099Y-85080585D01*
X151260099Y-85080585D02*
X151117242Y-84890109D01*
D12*
%TO.C,U1*%
X153730935Y-84278200D02*
X152599265Y-84278200D01*
X153730935Y-86538800D02*
X152599265Y-86538800D01*
D13*
%TO.C,J2*%
X162650800Y-89647000D02*
X161270800Y-89647000D01*
X162650800Y-88267000D02*
X162650800Y-89647000D01*
X162650800Y-86997000D02*
X162650800Y-81807000D01*
X162650800Y-86997000D02*
X159890800Y-86997000D01*
X162650800Y-81807000D02*
X159890800Y-81807000D01*
X159890800Y-86997000D02*
X159890800Y-81807000D01*
%TO.C,J1*%
X143380800Y-81807000D02*
X144760800Y-81807000D01*
X143380800Y-83187000D02*
X143380800Y-81807000D01*
X143380800Y-84457000D02*
X143380800Y-89647000D01*
X143380800Y-84457000D02*
X146140800Y-84457000D01*
X143380800Y-89647000D02*
X146140800Y-89647000D01*
X146140800Y-84457000D02*
X146140800Y-89647000D01*
%TD*%
M02*
