%TF.GenerationSoftware,KiCad,Pcbnew,9.0.1*%
%TF.CreationDate,2025-09-19T11:56:04-04:00*%
%TF.ProjectId,ComputeCore,436f6d70-7574-4654-936f-72652e6b6963,rev?*%
%TF.SameCoordinates,Original*%
%TF.FileFunction,Copper,L2,Bot*%
%TF.FilePolarity,Positive*%
%FSLAX46Y46*%
G04 Gerber Fmt 4.6, Leading zero omitted, Abs format (unit mm)*
G04 Created by KiCad (PCBNEW 9.0.1) date 2025-09-19 11:56:04*
%MOMM*%
%LPD*%
G01*
G04 APERTURE LIST*
G04 Aperture macros list*
%AMRoundRect*
0 Rectangle with rounded corners*
0 $1 Rounding radius*
0 $2 $3 $4 $5 $6 $7 $8 $9 X,Y pos of 4 corners*
0 Add a 4 corners polygon primitive as box body*
4,1,4,$2,$3,$4,$5,$6,$7,$8,$9,$2,$3,0*
0 Add four circle primitives for the rounded corners*
1,1,$1+$1,$2,$3*
1,1,$1+$1,$4,$5*
1,1,$1+$1,$6,$7*
1,1,$1+$1,$8,$9*
0 Add four rect primitives between the rounded corners*
20,1,$1+$1,$2,$3,$4,$5,0*
20,1,$1+$1,$4,$5,$6,$7,0*
20,1,$1+$1,$6,$7,$8,$9,0*
20,1,$1+$1,$8,$9,$2,$3,0*%
G04 Aperture macros list end*
%TA.AperFunction,ComponentPad*%
%ADD10RoundRect,0.250000X-0.550000X-0.550000X0.550000X-0.550000X0.550000X0.550000X-0.550000X0.550000X0*%
%TD*%
%TA.AperFunction,ViaPad*%
%ADD11C,0.350000*%
%TD*%
%TA.AperFunction,Conductor*%
%ADD12C,0.100000*%
%TD*%
G04 APERTURE END LIST*
D10*
%TO.P,J18,1,Pin_1*%
%TO.N,NRST*%
X176022000Y-74549000D03*
%TD*%
%TO.P,J17,1,Pin_1*%
%TO.N,GND*%
X170688000Y-74549000D03*
%TD*%
%TO.P,J16,1,Pin_1*%
%TO.N,VDD_CLK*%
X178689000Y-74549000D03*
%TD*%
%TO.P,J15,1,Pin_1*%
%TO.N,VDD*%
X173355000Y-74549000D03*
%TD*%
%TO.P,J14,1,Pin_1*%
%TO.N,USART1_TX*%
X159893000Y-87757000D03*
%TD*%
%TO.P,J13,1,Pin_1*%
%TO.N,USART1_RX*%
X159893000Y-90424000D03*
%TD*%
%TO.P,J12,1,Pin_1*%
%TO.N,SWCLK*%
X159766000Y-74676000D03*
%TD*%
%TO.P,J11,1,Pin_1*%
%TO.N,SWDIO*%
X162433000Y-74676000D03*
%TD*%
%TO.P,J10,1,Pin_1*%
%TO.N,GPIO2*%
X159893000Y-85090000D03*
%TD*%
%TO.P,J9,1,Pin_1*%
%TO.N,GPIO1*%
X159893000Y-82423000D03*
%TD*%
%TO.P,J8,1,Pin_1*%
%TO.N,I2C2_SCL*%
X178562000Y-93091000D03*
%TD*%
%TO.P,J7,1,Pin_1*%
%TO.N,SD0*%
X159893000Y-93091000D03*
%TD*%
%TO.P,J6,1,Pin_1*%
%TO.N,SD6*%
X175895000Y-93091000D03*
%TD*%
%TO.P,J5,1,Pin_1*%
%TO.N,SD5*%
X173228000Y-93091000D03*
%TD*%
%TO.P,J4,1,Pin_1*%
%TO.N,SD4*%
X170561000Y-93091000D03*
%TD*%
%TO.P,J3,1,Pin_1*%
%TO.N,SD3*%
X167894000Y-93091000D03*
%TD*%
%TO.P,J2,1,Pin_1*%
%TO.N,SD2*%
X165227000Y-93091000D03*
%TD*%
%TO.P,J1,1,Pin_1*%
%TO.N,SD1*%
X162560000Y-93091000D03*
%TD*%
D11*
%TO.N,I2C2_SCL*%
X178562000Y-93091000D03*
%TO.N,GND*%
X166243000Y-91440000D03*
X170434000Y-90175000D03*
%TO.N,VDD*%
X161265000Y-78105000D03*
%TO.N,GND*%
X166370000Y-80010000D03*
X159609000Y-79883000D03*
%TO.N,VDD*%
X173039000Y-88011000D03*
X171470000Y-86213000D03*
%TO.N,GND*%
X175387000Y-88011000D03*
X175387000Y-86741000D03*
%TO.N,VDD*%
X170942000Y-82230000D03*
X171069000Y-84328000D03*
%TO.N,I2C2_SDA*%
X171069000Y-84968000D03*
%TO.N,I2C2_SCL*%
X169926000Y-85664000D03*
%TO.N,VDD*%
X168529000Y-76327000D03*
X167370001Y-75946000D03*
%TO.N,I2C2_SCL*%
X177989000Y-86741000D03*
%TO.N,SPI1_CLK*%
X170053000Y-79646003D03*
X178371500Y-80645000D03*
%TO.N,SPI1_CS*%
X170053000Y-79121000D03*
X172910500Y-78105000D03*
%TO.N,GND*%
X168529000Y-83566000D03*
X168377000Y-84836000D03*
%TO.N,VDD*%
X167386000Y-83566000D03*
X167737000Y-84836000D03*
%TO.N,MRST*%
X165100000Y-85725000D03*
%TO.N,I2C2_SDA*%
X167132000Y-85344000D03*
%TO.N,I2C2_SCL*%
X167640000Y-85852000D03*
%TO.N,MRST*%
X162182000Y-81410000D03*
%TO.N,I2C2_SDA*%
X165498003Y-84074000D03*
%TO.N,I2C2_SCL*%
X164973000Y-84074000D03*
%TD*%
D12*
%TO.N,I2C2_SCL*%
X178562000Y-87314000D02*
X178562000Y-93091000D01*
X177989000Y-86741000D02*
X178562000Y-87314000D01*
%TO.N,GND*%
X169169000Y-91440000D02*
X170434000Y-90175000D01*
X166243000Y-91440000D02*
X169169000Y-91440000D01*
%TO.N,VDD*%
X168529000Y-76327000D02*
X163043000Y-76327000D01*
X163043000Y-76327000D02*
X161265000Y-78105000D01*
X170942000Y-82230000D02*
X168529000Y-79817000D01*
X168529000Y-79817000D02*
X168529000Y-76327000D01*
%TO.N,GND*%
X159609000Y-79883000D02*
X166243000Y-79883000D01*
X166243000Y-79883000D02*
X166370000Y-80010000D01*
%TO.N,VDD*%
X171470000Y-86213000D02*
X173039000Y-87782000D01*
X173039000Y-87782000D02*
X173039000Y-88011000D01*
%TO.N,GND*%
X175387000Y-86741000D02*
X175387000Y-88011000D01*
%TO.N,VDD*%
X169906000Y-83165000D02*
X170007000Y-83165000D01*
X170007000Y-83165000D02*
X170942000Y-82230000D01*
X168362900Y-83165000D02*
X169906000Y-83165000D01*
X167737000Y-84836000D02*
X167737000Y-83790900D01*
X169906000Y-83165000D02*
X171069000Y-84328000D01*
X167737000Y-83790900D02*
X168362900Y-83165000D01*
%TO.N,I2C2_SDA*%
X167132000Y-85344000D02*
X169678900Y-85344000D01*
X169678900Y-85344000D02*
X170054900Y-84968000D01*
X170054900Y-84968000D02*
X171069000Y-84968000D01*
%TO.N,I2C2_SCL*%
X169926000Y-85664000D02*
X176912000Y-85664000D01*
X176912000Y-85664000D02*
X177989000Y-86741000D01*
X169672000Y-85852000D02*
X169926000Y-85598000D01*
X167640000Y-85852000D02*
X169672000Y-85852000D01*
X169926000Y-85598000D02*
X169926000Y-85664000D01*
%TO.N,VDD*%
X168529000Y-76327000D02*
X168148000Y-75946000D01*
X168148000Y-75946000D02*
X167370001Y-75946000D01*
%TO.N,SPI1_CLK*%
X170053000Y-79646003D02*
X177372503Y-79646003D01*
X177372503Y-79646003D02*
X178371500Y-80645000D01*
%TO.N,SPI1_CS*%
X170053000Y-79121000D02*
X171894500Y-79121000D01*
X171894500Y-79121000D02*
X172910500Y-78105000D01*
%TO.N,GND*%
X168529000Y-83566000D02*
X168529000Y-84684000D01*
X168529000Y-84684000D02*
X168377000Y-84836000D01*
%TO.N,VDD*%
X167386000Y-83566000D02*
X167386000Y-84485000D01*
X167386000Y-84485000D02*
X167737000Y-84836000D01*
%TO.N,MRST*%
X165100000Y-85725000D02*
X162182000Y-82807000D01*
X162182000Y-82807000D02*
X162182000Y-81410000D01*
%TO.N,I2C2_SDA*%
X165862000Y-84074000D02*
X165498003Y-84074000D01*
X167132000Y-85344000D02*
X165862000Y-84074000D01*
%TO.N,I2C2_SCL*%
X167640000Y-85852000D02*
X166708903Y-85852000D01*
X166708903Y-85852000D02*
X164973000Y-84116097D01*
X164973000Y-84116097D02*
X164973000Y-84074000D01*
%TD*%
M02*
