%TF.GenerationSoftware,KiCad,Pcbnew,9.0.1*%
%TF.CreationDate,2025-09-19T11:56:04-04:00*%
%TF.ProjectId,ComputeCore,436f6d70-7574-4654-936f-72652e6b6963,rev?*%
%TF.SameCoordinates,Original*%
%TF.FileFunction,Legend,Top*%
%TF.FilePolarity,Positive*%
%FSLAX46Y46*%
G04 Gerber Fmt 4.6, Leading zero omitted, Abs format (unit mm)*
G04 Created by KiCad (PCBNEW 9.0.1) date 2025-09-19 11:56:04*
%MOMM*%
%LPD*%
G01*
G04 APERTURE LIST*
%ADD10C,0.062500*%
%ADD11C,0.150000*%
%ADD12C,0.152400*%
%ADD13C,0.000000*%
%ADD14C,0.120000*%
%ADD15C,0.100000*%
G04 APERTURE END LIST*
D10*
X173245260Y-83882559D02*
X173007165Y-83882559D01*
X173007165Y-83882559D02*
X173007165Y-83382559D01*
X173626213Y-83882559D02*
X173626213Y-83620654D01*
X173626213Y-83620654D02*
X173602403Y-83573035D01*
X173602403Y-83573035D02*
X173554784Y-83549226D01*
X173554784Y-83549226D02*
X173459546Y-83549226D01*
X173459546Y-83549226D02*
X173411927Y-83573035D01*
X173626213Y-83858750D02*
X173578594Y-83882559D01*
X173578594Y-83882559D02*
X173459546Y-83882559D01*
X173459546Y-83882559D02*
X173411927Y-83858750D01*
X173411927Y-83858750D02*
X173388118Y-83811130D01*
X173388118Y-83811130D02*
X173388118Y-83763511D01*
X173388118Y-83763511D02*
X173411927Y-83715892D01*
X173411927Y-83715892D02*
X173459546Y-83692083D01*
X173459546Y-83692083D02*
X173578594Y-83692083D01*
X173578594Y-83692083D02*
X173626213Y-83668273D01*
X173864308Y-83882559D02*
X173864308Y-83549226D01*
X173864308Y-83644464D02*
X173888118Y-83596845D01*
X173888118Y-83596845D02*
X173911927Y-83573035D01*
X173911927Y-83573035D02*
X173959546Y-83549226D01*
X173959546Y-83549226D02*
X174007165Y-83549226D01*
X174173832Y-83882559D02*
X174173832Y-83382559D01*
X174221451Y-83692083D02*
X174364308Y-83882559D01*
X174364308Y-83549226D02*
X174173832Y-83739702D01*
X174554785Y-83858750D02*
X174602404Y-83882559D01*
X174602404Y-83882559D02*
X174697642Y-83882559D01*
X174697642Y-83882559D02*
X174745261Y-83858750D01*
X174745261Y-83858750D02*
X174769070Y-83811130D01*
X174769070Y-83811130D02*
X174769070Y-83787321D01*
X174769070Y-83787321D02*
X174745261Y-83739702D01*
X174745261Y-83739702D02*
X174697642Y-83715892D01*
X174697642Y-83715892D02*
X174626213Y-83715892D01*
X174626213Y-83715892D02*
X174578594Y-83692083D01*
X174578594Y-83692083D02*
X174554785Y-83644464D01*
X174554785Y-83644464D02*
X174554785Y-83620654D01*
X174554785Y-83620654D02*
X174578594Y-83573035D01*
X174578594Y-83573035D02*
X174626213Y-83549226D01*
X174626213Y-83549226D02*
X174697642Y-83549226D01*
X174697642Y-83549226D02*
X174745261Y-83573035D01*
X174983356Y-83549226D02*
X174983356Y-84049226D01*
X174983356Y-83573035D02*
X175030975Y-83549226D01*
X175030975Y-83549226D02*
X175126213Y-83549226D01*
X175126213Y-83549226D02*
X175173832Y-83573035D01*
X175173832Y-83573035D02*
X175197642Y-83596845D01*
X175197642Y-83596845D02*
X175221451Y-83644464D01*
X175221451Y-83644464D02*
X175221451Y-83787321D01*
X175221451Y-83787321D02*
X175197642Y-83834940D01*
X175197642Y-83834940D02*
X175173832Y-83858750D01*
X175173832Y-83858750D02*
X175126213Y-83882559D01*
X175126213Y-83882559D02*
X175030975Y-83882559D01*
X175030975Y-83882559D02*
X174983356Y-83858750D01*
X175650023Y-83549226D02*
X175650023Y-83882559D01*
X175435737Y-83549226D02*
X175435737Y-83811130D01*
X175435737Y-83811130D02*
X175459547Y-83858750D01*
X175459547Y-83858750D02*
X175507166Y-83882559D01*
X175507166Y-83882559D02*
X175578594Y-83882559D01*
X175578594Y-83882559D02*
X175626213Y-83858750D01*
X175626213Y-83858750D02*
X175650023Y-83834940D01*
X175888118Y-83882559D02*
X175888118Y-83549226D01*
X175888118Y-83644464D02*
X175911928Y-83596845D01*
X175911928Y-83596845D02*
X175935737Y-83573035D01*
X175935737Y-83573035D02*
X175983356Y-83549226D01*
X175983356Y-83549226D02*
X176030975Y-83549226D01*
X176816689Y-83882559D02*
X176578594Y-83882559D01*
X176578594Y-83882559D02*
X176578594Y-83382559D01*
X177197642Y-83882559D02*
X177197642Y-83620654D01*
X177197642Y-83620654D02*
X177173832Y-83573035D01*
X177173832Y-83573035D02*
X177126213Y-83549226D01*
X177126213Y-83549226D02*
X177030975Y-83549226D01*
X177030975Y-83549226D02*
X176983356Y-83573035D01*
X177197642Y-83858750D02*
X177150023Y-83882559D01*
X177150023Y-83882559D02*
X177030975Y-83882559D01*
X177030975Y-83882559D02*
X176983356Y-83858750D01*
X176983356Y-83858750D02*
X176959547Y-83811130D01*
X176959547Y-83811130D02*
X176959547Y-83763511D01*
X176959547Y-83763511D02*
X176983356Y-83715892D01*
X176983356Y-83715892D02*
X177030975Y-83692083D01*
X177030975Y-83692083D02*
X177150023Y-83692083D01*
X177150023Y-83692083D02*
X177197642Y-83668273D01*
X177435737Y-83882559D02*
X177435737Y-83382559D01*
X177435737Y-83573035D02*
X177483356Y-83549226D01*
X177483356Y-83549226D02*
X177578594Y-83549226D01*
X177578594Y-83549226D02*
X177626213Y-83573035D01*
X177626213Y-83573035D02*
X177650023Y-83596845D01*
X177650023Y-83596845D02*
X177673832Y-83644464D01*
X177673832Y-83644464D02*
X177673832Y-83787321D01*
X177673832Y-83787321D02*
X177650023Y-83834940D01*
X177650023Y-83834940D02*
X177626213Y-83858750D01*
X177626213Y-83858750D02*
X177578594Y-83882559D01*
X177578594Y-83882559D02*
X177483356Y-83882559D01*
X177483356Y-83882559D02*
X177435737Y-83858750D01*
X163003559Y-91406834D02*
X162503559Y-91406834D01*
X162503559Y-91406834D02*
X162860702Y-91240167D01*
X162860702Y-91240167D02*
X162503559Y-91073501D01*
X162503559Y-91073501D02*
X163003559Y-91073501D01*
X162670226Y-90621119D02*
X163003559Y-90621119D01*
X162670226Y-90835405D02*
X162932130Y-90835405D01*
X162932130Y-90835405D02*
X162979750Y-90811595D01*
X162979750Y-90811595D02*
X163003559Y-90763976D01*
X163003559Y-90763976D02*
X163003559Y-90692548D01*
X163003559Y-90692548D02*
X162979750Y-90644929D01*
X162979750Y-90644929D02*
X162955940Y-90621119D01*
X163003559Y-90311595D02*
X162979750Y-90359214D01*
X162979750Y-90359214D02*
X162932130Y-90383024D01*
X162932130Y-90383024D02*
X162503559Y-90383024D01*
X162670226Y-90192547D02*
X162670226Y-90002071D01*
X162503559Y-90121119D02*
X162932130Y-90121119D01*
X162932130Y-90121119D02*
X162979750Y-90097309D01*
X162979750Y-90097309D02*
X163003559Y-90049690D01*
X163003559Y-90049690D02*
X163003559Y-90002071D01*
X163003559Y-89835405D02*
X162670226Y-89835405D01*
X162503559Y-89835405D02*
X162527369Y-89859214D01*
X162527369Y-89859214D02*
X162551178Y-89835405D01*
X162551178Y-89835405D02*
X162527369Y-89811595D01*
X162527369Y-89811595D02*
X162503559Y-89835405D01*
X162503559Y-89835405D02*
X162551178Y-89835405D01*
X162670226Y-89597310D02*
X163170226Y-89597310D01*
X162694035Y-89597310D02*
X162670226Y-89549691D01*
X162670226Y-89549691D02*
X162670226Y-89454453D01*
X162670226Y-89454453D02*
X162694035Y-89406834D01*
X162694035Y-89406834D02*
X162717845Y-89383024D01*
X162717845Y-89383024D02*
X162765464Y-89359215D01*
X162765464Y-89359215D02*
X162908321Y-89359215D01*
X162908321Y-89359215D02*
X162955940Y-89383024D01*
X162955940Y-89383024D02*
X162979750Y-89406834D01*
X162979750Y-89406834D02*
X163003559Y-89454453D01*
X163003559Y-89454453D02*
X163003559Y-89549691D01*
X163003559Y-89549691D02*
X162979750Y-89597310D01*
X163003559Y-89073500D02*
X162979750Y-89121119D01*
X162979750Y-89121119D02*
X162932130Y-89144929D01*
X162932130Y-89144929D02*
X162503559Y-89144929D01*
X162979750Y-88692548D02*
X163003559Y-88740167D01*
X163003559Y-88740167D02*
X163003559Y-88835405D01*
X163003559Y-88835405D02*
X162979750Y-88883024D01*
X162979750Y-88883024D02*
X162932130Y-88906833D01*
X162932130Y-88906833D02*
X162741654Y-88906833D01*
X162741654Y-88906833D02*
X162694035Y-88883024D01*
X162694035Y-88883024D02*
X162670226Y-88835405D01*
X162670226Y-88835405D02*
X162670226Y-88740167D01*
X162670226Y-88740167D02*
X162694035Y-88692548D01*
X162694035Y-88692548D02*
X162741654Y-88668738D01*
X162741654Y-88668738D02*
X162789273Y-88668738D01*
X162789273Y-88668738D02*
X162836892Y-88906833D01*
X163003559Y-88502072D02*
X162670226Y-88240167D01*
X162670226Y-88502072D02*
X163003559Y-88240167D01*
X173019879Y-85738940D02*
X172996070Y-85762750D01*
X172996070Y-85762750D02*
X172924641Y-85786559D01*
X172924641Y-85786559D02*
X172877022Y-85786559D01*
X172877022Y-85786559D02*
X172805594Y-85762750D01*
X172805594Y-85762750D02*
X172757975Y-85715130D01*
X172757975Y-85715130D02*
X172734165Y-85667511D01*
X172734165Y-85667511D02*
X172710356Y-85572273D01*
X172710356Y-85572273D02*
X172710356Y-85500845D01*
X172710356Y-85500845D02*
X172734165Y-85405607D01*
X172734165Y-85405607D02*
X172757975Y-85357988D01*
X172757975Y-85357988D02*
X172805594Y-85310369D01*
X172805594Y-85310369D02*
X172877022Y-85286559D01*
X172877022Y-85286559D02*
X172924641Y-85286559D01*
X172924641Y-85286559D02*
X172996070Y-85310369D01*
X172996070Y-85310369D02*
X173019879Y-85334178D01*
X173305594Y-85786559D02*
X173257975Y-85762750D01*
X173257975Y-85762750D02*
X173234165Y-85715130D01*
X173234165Y-85715130D02*
X173234165Y-85286559D01*
X173567499Y-85786559D02*
X173519880Y-85762750D01*
X173519880Y-85762750D02*
X173496070Y-85738940D01*
X173496070Y-85738940D02*
X173472261Y-85691321D01*
X173472261Y-85691321D02*
X173472261Y-85548464D01*
X173472261Y-85548464D02*
X173496070Y-85500845D01*
X173496070Y-85500845D02*
X173519880Y-85477035D01*
X173519880Y-85477035D02*
X173567499Y-85453226D01*
X173567499Y-85453226D02*
X173638927Y-85453226D01*
X173638927Y-85453226D02*
X173686546Y-85477035D01*
X173686546Y-85477035D02*
X173710356Y-85500845D01*
X173710356Y-85500845D02*
X173734165Y-85548464D01*
X173734165Y-85548464D02*
X173734165Y-85691321D01*
X173734165Y-85691321D02*
X173710356Y-85738940D01*
X173710356Y-85738940D02*
X173686546Y-85762750D01*
X173686546Y-85762750D02*
X173638927Y-85786559D01*
X173638927Y-85786559D02*
X173567499Y-85786559D01*
X174162737Y-85762750D02*
X174115118Y-85786559D01*
X174115118Y-85786559D02*
X174019880Y-85786559D01*
X174019880Y-85786559D02*
X173972261Y-85762750D01*
X173972261Y-85762750D02*
X173948451Y-85738940D01*
X173948451Y-85738940D02*
X173924642Y-85691321D01*
X173924642Y-85691321D02*
X173924642Y-85548464D01*
X173924642Y-85548464D02*
X173948451Y-85500845D01*
X173948451Y-85500845D02*
X173972261Y-85477035D01*
X173972261Y-85477035D02*
X174019880Y-85453226D01*
X174019880Y-85453226D02*
X174115118Y-85453226D01*
X174115118Y-85453226D02*
X174162737Y-85477035D01*
X174377022Y-85786559D02*
X174377022Y-85286559D01*
X174424641Y-85596083D02*
X174567498Y-85786559D01*
X174567498Y-85453226D02*
X174377022Y-85643702D01*
X174951832Y-76635654D02*
X174785165Y-76635654D01*
X174785165Y-76897559D02*
X174785165Y-76397559D01*
X174785165Y-76397559D02*
X175023260Y-76397559D01*
X175285165Y-76897559D02*
X175237546Y-76873750D01*
X175237546Y-76873750D02*
X175213736Y-76826130D01*
X175213736Y-76826130D02*
X175213736Y-76397559D01*
X175689927Y-76897559D02*
X175689927Y-76635654D01*
X175689927Y-76635654D02*
X175666117Y-76588035D01*
X175666117Y-76588035D02*
X175618498Y-76564226D01*
X175618498Y-76564226D02*
X175523260Y-76564226D01*
X175523260Y-76564226D02*
X175475641Y-76588035D01*
X175689927Y-76873750D02*
X175642308Y-76897559D01*
X175642308Y-76897559D02*
X175523260Y-76897559D01*
X175523260Y-76897559D02*
X175475641Y-76873750D01*
X175475641Y-76873750D02*
X175451832Y-76826130D01*
X175451832Y-76826130D02*
X175451832Y-76778511D01*
X175451832Y-76778511D02*
X175475641Y-76730892D01*
X175475641Y-76730892D02*
X175523260Y-76707083D01*
X175523260Y-76707083D02*
X175642308Y-76707083D01*
X175642308Y-76707083D02*
X175689927Y-76683273D01*
X175904213Y-76873750D02*
X175951832Y-76897559D01*
X175951832Y-76897559D02*
X176047070Y-76897559D01*
X176047070Y-76897559D02*
X176094689Y-76873750D01*
X176094689Y-76873750D02*
X176118498Y-76826130D01*
X176118498Y-76826130D02*
X176118498Y-76802321D01*
X176118498Y-76802321D02*
X176094689Y-76754702D01*
X176094689Y-76754702D02*
X176047070Y-76730892D01*
X176047070Y-76730892D02*
X175975641Y-76730892D01*
X175975641Y-76730892D02*
X175928022Y-76707083D01*
X175928022Y-76707083D02*
X175904213Y-76659464D01*
X175904213Y-76659464D02*
X175904213Y-76635654D01*
X175904213Y-76635654D02*
X175928022Y-76588035D01*
X175928022Y-76588035D02*
X175975641Y-76564226D01*
X175975641Y-76564226D02*
X176047070Y-76564226D01*
X176047070Y-76564226D02*
X176094689Y-76588035D01*
X176332784Y-76897559D02*
X176332784Y-76397559D01*
X176547070Y-76897559D02*
X176547070Y-76635654D01*
X176547070Y-76635654D02*
X176523260Y-76588035D01*
X176523260Y-76588035D02*
X176475641Y-76564226D01*
X176475641Y-76564226D02*
X176404213Y-76564226D01*
X176404213Y-76564226D02*
X176356594Y-76588035D01*
X176356594Y-76588035D02*
X176332784Y-76611845D01*
D11*
X172656500Y-75858019D02*
X172656500Y-76096114D01*
X172418405Y-76000876D02*
X172656500Y-76096114D01*
X172656500Y-76096114D02*
X172894595Y-76000876D01*
X172513643Y-76286590D02*
X172656500Y-76096114D01*
X172656500Y-76096114D02*
X172799357Y-76286590D01*
X172656500Y-75858019D02*
X172656500Y-76096114D01*
X172418405Y-76000876D02*
X172656500Y-76096114D01*
X172656500Y-76096114D02*
X172894595Y-76000876D01*
X172513643Y-76286590D02*
X172656500Y-76096114D01*
X172656500Y-76096114D02*
X172799357Y-76286590D01*
X162433000Y-77064819D02*
X162433000Y-77302914D01*
X162194905Y-77207676D02*
X162433000Y-77302914D01*
X162433000Y-77302914D02*
X162671095Y-77207676D01*
X162290143Y-77493390D02*
X162433000Y-77302914D01*
X162433000Y-77302914D02*
X162575857Y-77493390D01*
X162433000Y-77064819D02*
X162433000Y-77302914D01*
X162194905Y-77207676D02*
X162433000Y-77302914D01*
X162433000Y-77302914D02*
X162671095Y-77207676D01*
X162290143Y-77493390D02*
X162433000Y-77302914D01*
X162433000Y-77302914D02*
X162575857Y-77493390D01*
D12*
%TO.C,U2*%
X173507400Y-82651600D02*
X177774600Y-82651600D01*
X177774600Y-77368400D02*
X173507400Y-77368400D01*
D13*
%TO.C,U1*%
G36*
X162814000Y-81600500D02*
G01*
X162560000Y-81600500D01*
X162560000Y-81219500D01*
X162814000Y-81219500D01*
X162814000Y-81600500D01*
G37*
G36*
X167160499Y-83820000D02*
G01*
X166779499Y-83820000D01*
X166779499Y-83566000D01*
X167160499Y-83566000D01*
X167160499Y-83820000D01*
G37*
G36*
X170180000Y-80400500D02*
G01*
X169926000Y-80400500D01*
X169926000Y-80019500D01*
X170180000Y-80019500D01*
X170180000Y-80400500D01*
G37*
G36*
X167560501Y-76454000D02*
G01*
X167179501Y-76454000D01*
X167179501Y-76200000D01*
X167560501Y-76200000D01*
X167560501Y-76454000D01*
G37*
D12*
X163245800Y-83134200D02*
X163735659Y-83134200D01*
X169494200Y-83134200D02*
X169494200Y-82644341D01*
X169494200Y-76885800D02*
X169004341Y-76885800D01*
X163245800Y-76885800D02*
X163245800Y-77375659D01*
X163245800Y-82644341D02*
X163245800Y-83134200D01*
X169004341Y-83134200D02*
X169494200Y-83134200D01*
X169494200Y-77375659D02*
X169494200Y-76885800D01*
X163735659Y-76885800D02*
X163245800Y-76885800D01*
D14*
%TO.C,U4*%
X175514000Y-86086000D02*
X173564000Y-86086000D01*
X175514000Y-86086000D02*
X177464000Y-86086000D01*
X175514000Y-91206000D02*
X173564000Y-91206000D01*
X175514000Y-91206000D02*
X177464000Y-91206000D01*
X172814000Y-86181000D02*
X172574000Y-85851000D01*
X173054000Y-85851000D01*
X172814000Y-86181000D01*
G36*
X172814000Y-86181000D02*
G01*
X172574000Y-85851000D01*
X173054000Y-85851000D01*
X172814000Y-86181000D01*
G37*
%TO.C,U3*%
X164280000Y-87028000D02*
X164280000Y-86793000D01*
X164280000Y-90773000D02*
X164280000Y-90298000D01*
X164755000Y-86553000D02*
X164580000Y-86553000D01*
X164755000Y-90773000D02*
X164280000Y-90773000D01*
X168025000Y-86553000D02*
X168500000Y-86553000D01*
X168025000Y-90773000D02*
X168500000Y-90773000D01*
X168500000Y-86553000D02*
X168500000Y-87028000D01*
X168500000Y-90773000D02*
X168500000Y-90298000D01*
X164280000Y-86553000D02*
X164040000Y-86223000D01*
X164520000Y-86223000D01*
X164280000Y-86553000D01*
G36*
X164280000Y-86553000D02*
G01*
X164040000Y-86223000D01*
X164520000Y-86223000D01*
X164280000Y-86553000D01*
G37*
D15*
%TO.C,RLED1*%
X160922000Y-79883000D02*
G75*
G02*
X160822000Y-79883000I-50000J0D01*
G01*
X160822000Y-79883000D02*
G75*
G02*
X160922000Y-79883000I50000J0D01*
G01*
%TO.C,GLED1*%
X160897000Y-78994000D02*
G75*
G02*
X160797000Y-78994000I-50000J0D01*
G01*
X160797000Y-78994000D02*
G75*
G02*
X160897000Y-78994000I50000J0D01*
G01*
%TD*%
M02*
