%TF.GenerationSoftware,KiCad,Pcbnew,9.0.1*%
%TF.CreationDate,2025-09-19T11:56:04-04:00*%
%TF.ProjectId,ComputeCore,436f6d70-7574-4654-936f-72652e6b6963,rev?*%
%TF.SameCoordinates,Original*%
%TF.FileFunction,Paste,Top*%
%TF.FilePolarity,Positive*%
%FSLAX46Y46*%
G04 Gerber Fmt 4.6, Leading zero omitted, Abs format (unit mm)*
G04 Created by KiCad (PCBNEW 9.0.1) date 2025-09-19 11:56:04*
%MOMM*%
%LPD*%
G01*
G04 APERTURE LIST*
G04 Aperture macros list*
%AMRoundRect*
0 Rectangle with rounded corners*
0 $1 Rounding radius*
0 $2 $3 $4 $5 $6 $7 $8 $9 X,Y pos of 4 corners*
0 Add a 4 corners polygon primitive as box body*
4,1,4,$2,$3,$4,$5,$6,$7,$8,$9,$2,$3,0*
0 Add four circle primitives for the rounded corners*
1,1,$1+$1,$2,$3*
1,1,$1+$1,$4,$5*
1,1,$1+$1,$6,$7*
1,1,$1+$1,$8,$9*
0 Add four rect primitives between the rounded corners*
20,1,$1+$1,$2,$3,$4,$5,0*
20,1,$1+$1,$4,$5,$6,$7,0*
20,1,$1+$1,$6,$7,$8,$9,0*
20,1,$1+$1,$8,$9,$2,$3,0*%
G04 Aperture macros list end*
%ADD10C,0.000000*%
%ADD11R,1.447800X0.558800*%
%ADD12R,0.863600X0.203200*%
%ADD13R,0.203200X0.863600*%
%ADD14R,4.495800X4.495800*%
%ADD15RoundRect,0.079500X-0.100500X0.079500X-0.100500X-0.079500X0.100500X-0.079500X0.100500X0.079500X0*%
%ADD16RoundRect,0.150000X-0.825000X-0.150000X0.825000X-0.150000X0.825000X0.150000X-0.825000X0.150000X0*%
%ADD17RoundRect,0.212500X-0.212500X-0.212500X0.212500X-0.212500X0.212500X0.212500X-0.212500X0.212500X0*%
%ADD18RoundRect,0.062500X-0.375000X-0.062500X0.375000X-0.062500X0.375000X0.062500X-0.375000X0.062500X0*%
%ADD19RoundRect,0.062500X-0.062500X-0.375000X0.062500X-0.375000X0.062500X0.375000X-0.062500X0.375000X0*%
%ADD20RoundRect,0.079500X-0.079500X-0.100500X0.079500X-0.100500X0.079500X0.100500X-0.079500X0.100500X0*%
%ADD21RoundRect,0.079500X0.100500X-0.079500X0.100500X0.079500X-0.100500X0.079500X-0.100500X-0.079500X0*%
%ADD22RoundRect,0.079500X0.079500X0.100500X-0.079500X0.100500X-0.079500X-0.100500X0.079500X-0.100500X0*%
G04 APERTURE END LIST*
D10*
%TO.C,U1*%
G36*
X165520700Y-79160700D02*
G01*
X164222100Y-79160700D01*
X164222100Y-77862100D01*
X165520700Y-77862100D01*
X165520700Y-79160700D01*
G37*
G36*
X165520700Y-80659300D02*
G01*
X164222100Y-80659300D01*
X164222100Y-79360700D01*
X165520700Y-79360700D01*
X165520700Y-80659300D01*
G37*
G36*
X165520700Y-82157900D02*
G01*
X164222100Y-82157900D01*
X164222100Y-80859300D01*
X165520700Y-80859300D01*
X165520700Y-82157900D01*
G37*
G36*
X167019300Y-79160700D02*
G01*
X165720700Y-79160700D01*
X165720700Y-77862100D01*
X167019300Y-77862100D01*
X167019300Y-79160700D01*
G37*
G36*
X167019300Y-80659300D02*
G01*
X165720700Y-80659300D01*
X165720700Y-79360700D01*
X167019300Y-79360700D01*
X167019300Y-80659300D01*
G37*
G36*
X167019300Y-82157900D02*
G01*
X165720700Y-82157900D01*
X165720700Y-80859300D01*
X167019300Y-80859300D01*
X167019300Y-82157900D01*
G37*
G36*
X168517900Y-79160700D02*
G01*
X167219300Y-79160700D01*
X167219300Y-77862100D01*
X168517900Y-77862100D01*
X168517900Y-79160700D01*
G37*
G36*
X168517900Y-80659300D02*
G01*
X167219300Y-80659300D01*
X167219300Y-79360700D01*
X168517900Y-79360700D01*
X168517900Y-80659300D01*
G37*
G36*
X168517900Y-82157900D02*
G01*
X167219300Y-82157900D01*
X167219300Y-80859300D01*
X168517900Y-80859300D01*
X168517900Y-82157900D01*
G37*
%TD*%
D11*
%TO.C,U2*%
X172910500Y-78105000D03*
X172910500Y-79375000D03*
X172910500Y-80645000D03*
X172910500Y-81915000D03*
X178371500Y-81915000D03*
X178371500Y-80645000D03*
X178371500Y-79375000D03*
X178371500Y-78105000D03*
%TD*%
D12*
%TO.C,U1*%
X163499800Y-77809999D03*
X163499800Y-78210001D03*
X163499800Y-78610000D03*
X163499800Y-79009999D03*
X163499800Y-79410001D03*
X163499800Y-79810000D03*
X163499800Y-80210000D03*
X163499800Y-80609999D03*
X163499800Y-81010001D03*
X163499800Y-81410000D03*
X163499800Y-81809999D03*
X163499800Y-82210001D03*
D13*
X164169999Y-82880200D03*
X164570001Y-82880200D03*
X164970000Y-82880200D03*
X165369999Y-82880200D03*
X165770001Y-82880200D03*
X166170000Y-82880200D03*
X166570000Y-82880200D03*
X166969999Y-82880200D03*
X167370001Y-82880200D03*
X167770000Y-82880200D03*
X168169999Y-82880200D03*
X168570001Y-82880200D03*
D12*
X169240200Y-82210001D03*
X169240200Y-81809999D03*
X169240200Y-81410000D03*
X169240200Y-81010001D03*
X169240200Y-80609999D03*
X169240200Y-80210000D03*
X169240200Y-79810000D03*
X169240200Y-79410001D03*
X169240200Y-79009999D03*
X169240200Y-78610000D03*
X169240200Y-78210001D03*
X169240200Y-77809999D03*
D13*
X168570001Y-77139800D03*
X168169999Y-77139800D03*
X167770000Y-77139800D03*
X167370001Y-77139800D03*
X166969999Y-77139800D03*
X166570000Y-77139800D03*
X166170000Y-77139800D03*
X165770001Y-77139800D03*
X165369999Y-77139800D03*
X164970000Y-77139800D03*
X164570001Y-77139800D03*
X164169999Y-77139800D03*
D14*
X166370000Y-80010000D03*
%TD*%
D15*
%TO.C,R3*%
X170942000Y-81371000D03*
X170942000Y-80681000D03*
%TD*%
D16*
%TO.C,U4*%
X173039000Y-86741000D03*
X173039000Y-88011000D03*
X173039000Y-89281000D03*
X173039000Y-90551000D03*
X177989000Y-90551000D03*
X177989000Y-89281000D03*
X177989000Y-88011000D03*
X177989000Y-86741000D03*
%TD*%
D17*
%TO.C,U3*%
X165865000Y-88138000D03*
X165865000Y-89188000D03*
X166915000Y-88138000D03*
X166915000Y-89188000D03*
D18*
X164452500Y-87413000D03*
X164452500Y-87913000D03*
X164452500Y-88413000D03*
X164452500Y-88913000D03*
X164452500Y-89413000D03*
X164452500Y-89913000D03*
D19*
X165140000Y-90600500D03*
X165640000Y-90600500D03*
X166140000Y-90600500D03*
X166640000Y-90600500D03*
X167140000Y-90600500D03*
X167640000Y-90600500D03*
D18*
X168327500Y-89913000D03*
X168327500Y-89413000D03*
X168327500Y-88913000D03*
X168327500Y-88413000D03*
X168327500Y-87913000D03*
X168327500Y-87413000D03*
D19*
X167640000Y-86725500D03*
X167140000Y-86725500D03*
X166640000Y-86725500D03*
X166140000Y-86725500D03*
X165640000Y-86725500D03*
X165140000Y-86725500D03*
%TD*%
D20*
%TO.C,RLED1*%
X161387000Y-79883000D03*
X162077000Y-79883000D03*
%TD*%
D21*
%TO.C,R7*%
X170434000Y-88701000D03*
X170434000Y-88011000D03*
%TD*%
%TO.C,R5*%
X171069000Y-84993000D03*
X171069000Y-84303000D03*
%TD*%
D15*
%TO.C,R4*%
X169926000Y-84999000D03*
X169926000Y-85689000D03*
%TD*%
D20*
%TO.C,R2*%
X159584000Y-79883000D03*
X160274000Y-79883000D03*
%TD*%
%TO.C,R1*%
X159584000Y-78994000D03*
X160274000Y-78994000D03*
%TD*%
%TO.C,GLED1*%
X161362000Y-78994000D03*
X162052000Y-78994000D03*
%TD*%
D22*
%TO.C,C11*%
X176022000Y-85090000D03*
X175332000Y-85090000D03*
%TD*%
D15*
%TO.C,C10*%
X170434000Y-89510000D03*
X170434000Y-90200000D03*
%TD*%
D20*
%TO.C,C9*%
X167712000Y-84836000D03*
X168402000Y-84836000D03*
%TD*%
D15*
%TO.C,C8*%
X170942000Y-82205000D03*
X170942000Y-82895000D03*
%TD*%
D21*
%TO.C,C6*%
X167513000Y-75783000D03*
X167513000Y-75093000D03*
%TD*%
D20*
%TO.C,C3*%
X160600000Y-78105000D03*
X161290000Y-78105000D03*
%TD*%
D21*
%TO.C,C2*%
X166624000Y-75783000D03*
X166624000Y-75093000D03*
%TD*%
M02*
