M48
; DRILL file {KiCad 9.0.1} date 2025-09-19T11:55:55-0400
; FORMAT={-:-/ absolute / metric / decimal}
; #@! TF.CreationDate,2025-09-19T11:55:55-04:00
; #@! TF.GenerationSoftware,Kicad,Pcbnew,9.0.1
; #@! TF.FileFunction,Plated,1,2,PTH
FMAT,2
METRIC
; #@! TA.AperFunction,Plated,PTH,ViaDrill
T1C0.200
; #@! TA.AperFunction,Plated,PTH,ComponentDrill
T2C0.600
%
G90
G05
T1
X159.609Y-79.883
X161.265Y-78.105
X162.182Y-81.41
X164.973Y-84.074
X165.1Y-85.725
X165.498Y-84.074
X166.243Y-91.44
X166.37Y-80.01
X167.132Y-85.344
X167.37Y-75.946
X167.386Y-83.566
X167.64Y-85.852
X167.737Y-84.836
X168.377Y-84.836
X168.529Y-76.327
X168.529Y-83.566
X169.926Y-85.664
X170.053Y-79.121
X170.053Y-79.646
X170.434Y-90.175
X170.942Y-82.23
X171.069Y-84.328
X171.069Y-84.968
X171.47Y-86.213
X172.91Y-78.105
X173.039Y-88.011
X175.387Y-86.741
X175.387Y-88.011
X177.989Y-86.741
X178.371Y-80.645
X178.562Y-93.091
T2
X159.766Y-74.676
X159.893Y-82.423
X159.893Y-85.09
X159.893Y-87.757
X159.893Y-90.424
X159.893Y-93.091
X162.433Y-74.676
X162.56Y-93.091
X165.227Y-93.091
X167.894Y-93.091
X170.561Y-93.091
X170.688Y-74.549
X173.228Y-93.091
X173.355Y-74.549
X175.895Y-93.091
X176.022Y-74.549
X178.562Y-93.091
X178.689Y-74.549
M30
