%TF.GenerationSoftware,KiCad,Pcbnew,9.0.1*%
%TF.CreationDate,2025-09-19T11:56:04-04:00*%
%TF.ProjectId,ComputeCore,436f6d70-7574-4654-936f-72652e6b6963,rev?*%
%TF.SameCoordinates,Original*%
%TF.FileFunction,Copper,L1,Top*%
%TF.FilePolarity,Positive*%
%FSLAX46Y46*%
G04 Gerber Fmt 4.6, Leading zero omitted, Abs format (unit mm)*
G04 Created by KiCad (PCBNEW 9.0.1) date 2025-09-19 11:56:04*
%MOMM*%
%LPD*%
G01*
G04 APERTURE LIST*
G04 Aperture macros list*
%AMRoundRect*
0 Rectangle with rounded corners*
0 $1 Rounding radius*
0 $2 $3 $4 $5 $6 $7 $8 $9 X,Y pos of 4 corners*
0 Add a 4 corners polygon primitive as box body*
4,1,4,$2,$3,$4,$5,$6,$7,$8,$9,$2,$3,0*
0 Add four circle primitives for the rounded corners*
1,1,$1+$1,$2,$3*
1,1,$1+$1,$4,$5*
1,1,$1+$1,$6,$7*
1,1,$1+$1,$8,$9*
0 Add four rect primitives between the rounded corners*
20,1,$1+$1,$2,$3,$4,$5,0*
20,1,$1+$1,$4,$5,$6,$7,0*
20,1,$1+$1,$6,$7,$8,$9,0*
20,1,$1+$1,$8,$9,$2,$3,0*%
G04 Aperture macros list end*
%TA.AperFunction,SMDPad,CuDef*%
%ADD10R,1.447800X0.558800*%
%TD*%
%TA.AperFunction,SMDPad,CuDef*%
%ADD11R,0.863600X0.203200*%
%TD*%
%TA.AperFunction,SMDPad,CuDef*%
%ADD12R,0.203200X0.863600*%
%TD*%
%TA.AperFunction,SMDPad,CuDef*%
%ADD13R,4.495800X4.495800*%
%TD*%
%TA.AperFunction,SMDPad,CuDef*%
%ADD14RoundRect,0.100000X-0.100000X0.130000X-0.100000X-0.130000X0.100000X-0.130000X0.100000X0.130000X0*%
%TD*%
%TA.AperFunction,SMDPad,CuDef*%
%ADD15RoundRect,0.150000X-0.825000X-0.150000X0.825000X-0.150000X0.825000X0.150000X-0.825000X0.150000X0*%
%TD*%
%TA.AperFunction,SMDPad,CuDef*%
%ADD16RoundRect,0.062500X-0.375000X-0.062500X0.375000X-0.062500X0.375000X0.062500X-0.375000X0.062500X0*%
%TD*%
%TA.AperFunction,SMDPad,CuDef*%
%ADD17RoundRect,0.062500X-0.062500X-0.375000X0.062500X-0.375000X0.062500X0.375000X-0.062500X0.375000X0*%
%TD*%
%TA.AperFunction,HeatsinkPad*%
%ADD18R,2.100000X2.100000*%
%TD*%
%TA.AperFunction,SMDPad,CuDef*%
%ADD19RoundRect,0.100000X-0.130000X-0.100000X0.130000X-0.100000X0.130000X0.100000X-0.130000X0.100000X0*%
%TD*%
%TA.AperFunction,SMDPad,CuDef*%
%ADD20RoundRect,0.100000X0.100000X-0.130000X0.100000X0.130000X-0.100000X0.130000X-0.100000X-0.130000X0*%
%TD*%
%TA.AperFunction,ComponentPad*%
%ADD21RoundRect,0.250000X-0.550000X-0.550000X0.550000X-0.550000X0.550000X0.550000X-0.550000X0.550000X0*%
%TD*%
%TA.AperFunction,SMDPad,CuDef*%
%ADD22RoundRect,0.100000X0.130000X0.100000X-0.130000X0.100000X-0.130000X-0.100000X0.130000X-0.100000X0*%
%TD*%
%TA.AperFunction,ViaPad*%
%ADD23C,0.350000*%
%TD*%
%TA.AperFunction,Conductor*%
%ADD24C,0.100000*%
%TD*%
G04 APERTURE END LIST*
D10*
%TO.P,U2,1,CS#*%
%TO.N,SPI1_CS*%
X172910500Y-78105000D03*
%TO.P,U2,2,SO/SIO1*%
%TO.N,SPI1_MISO*%
X172910500Y-79375000D03*
%TO.P,U2,3,WP#*%
%TO.N,Net-(U2-WP#)*%
X172910500Y-80645000D03*
%TO.P,U2,4,GND*%
%TO.N,GND*%
X172910500Y-81915000D03*
%TO.P,U2,5,SI/SIO0*%
%TO.N,SPI1_MOSI*%
X178371500Y-81915000D03*
%TO.P,U2,6,SCLK*%
%TO.N,SPI1_CLK*%
X178371500Y-80645000D03*
%TO.P,U2,7,NC*%
%TO.N,unconnected-(U2-NC-Pad7)*%
X178371500Y-79375000D03*
%TO.P,U2,8,VCC*%
%TO.N,VDD*%
X178371500Y-78105000D03*
%TD*%
D11*
%TO.P,U1,1,PA2*%
%TO.N,SWDIO*%
X163499800Y-77809999D03*
%TO.P,U1,2,PA3*%
%TO.N,SWCLK*%
X163499800Y-78210001D03*
%TO.P,U1,3,VDD_1*%
%TO.N,VDD*%
X163499800Y-78610000D03*
%TO.P,U1,4,PB3*%
%TO.N,Net-(GLED1-A)*%
X163499800Y-79009999D03*
%TO.P,U1,5,PB4*%
%TO.N,Net-(RLED1-A)*%
X163499800Y-79410001D03*
%TO.P,U1,6,PB5*%
%TO.N,unconnected-(U1-PB5-Pad6)*%
X163499800Y-79810000D03*
%TO.P,U1,7,PA0*%
%TO.N,unconnected-(U1-PA0-Pad7)*%
X163499800Y-80210000D03*
%TO.P,U1,8,PA4*%
%TO.N,GPIO1*%
X163499800Y-80609999D03*
%TO.P,U1,9,PA11*%
%TO.N,GPIO2*%
X163499800Y-81010001D03*
%TO.P,U1,10,PA10*%
%TO.N,MRST*%
X163499800Y-81410000D03*
%TO.P,U1,11,PA9*%
%TO.N,USART1_TX*%
X163499800Y-81809999D03*
%TO.P,U1,12,PA8*%
%TO.N,USART1_RX*%
X163499800Y-82210001D03*
D12*
%TO.P,U1,13,PB6*%
%TO.N,A1*%
X164169999Y-82880200D03*
%TO.P,U1,14,PA5*%
%TO.N,A0*%
X164570001Y-82880200D03*
%TO.P,U1,15,PA6*%
%TO.N,I2C2_SCL*%
X164970000Y-82880200D03*
%TO.P,U1,16,PA7*%
%TO.N,I2C2_SDA*%
X165369999Y-82880200D03*
%TO.P,U1,17,PB12*%
%TO.N,A2*%
X165770001Y-82880200D03*
%TO.P,U1,18,PB13*%
%TO.N,unconnected-(U1-PB13-Pad18)*%
X166170000Y-82880200D03*
%TO.P,U1,19,PB14*%
%TO.N,unconnected-(U1-PB14-Pad19)*%
X166570000Y-82880200D03*
%TO.P,U1,20,PB15*%
%TO.N,unconnected-(U1-PB15-Pad20)*%
X166969999Y-82880200D03*
%TO.P,U1,21,VDD2*%
%TO.N,VDD*%
X167370001Y-82880200D03*
%TO.P,U1,22,LPAWUR*%
%TO.N,unconnected-(U1-LPAWUR-Pad22)*%
X167770000Y-82880200D03*
%TO.P,U1,23,RX*%
%TO.N,unconnected-(U1-RX-Pad23)*%
X168169999Y-82880200D03*
%TO.P,U1,24,EXTGND*%
%TO.N,GND*%
X168570001Y-82880200D03*
D11*
%TO.P,U1,25,TX_HP*%
%TO.N,unconnected-(U1-TX_HP-Pad25)*%
X169240200Y-82210001D03*
%TO.P,U1,26,TX*%
%TO.N,unconnected-(U1-TX-Pad26)*%
X169240200Y-81809999D03*
%TO.P,U1,27,VDDRF*%
%TO.N,VDD*%
X169240200Y-81410000D03*
%TO.P,U1,28,OSCOUT*%
%TO.N,unconnected-(U1-OSCOUT-Pad28)*%
X169240200Y-81010001D03*
%TO.P,U1,29,OSCIN*%
%TO.N,unconnected-(U1-OSCIN-Pad29)*%
X169240200Y-80609999D03*
%TO.P,U1,30,PA1*%
%TO.N,unconnected-(U1-PA1-Pad30)*%
X169240200Y-80210000D03*
%TO.P,U1,31,PB7*%
%TO.N,unconnected-(U1-PB7-Pad31)*%
X169240200Y-79810000D03*
%TO.P,U1,32,PB11*%
%TO.N,SPI1_CLK*%
X169240200Y-79410001D03*
%TO.P,U1,33,PB10*%
%TO.N,SPI1_CS*%
X169240200Y-79009999D03*
%TO.P,U1,34,PB9*%
%TO.N,SPI1_MOSI*%
X169240200Y-78610000D03*
%TO.P,U1,35,PB8*%
%TO.N,SPI1_MISO*%
X169240200Y-78210001D03*
%TO.P,U1,36,NRST*%
%TO.N,NRST*%
X169240200Y-77809999D03*
D12*
%TO.P,U1,37,VDDSD*%
%TO.N,VDD*%
X168570001Y-77139800D03*
%TO.P,U1,38,VLXSD*%
%TO.N,unconnected-(U1-VLXSD-Pad38)*%
X168169999Y-77139800D03*
%TO.P,U1,39,VSSSD*%
%TO.N,GND*%
X167770000Y-77139800D03*
%TO.P,U1,40,VFBSD*%
%TO.N,VDD*%
X167370001Y-77139800D03*
%TO.P,U1,41,VCAP*%
%TO.N,Net-(U1-VCAP)*%
X166969999Y-77139800D03*
%TO.P,U1,42,PA12*%
%TO.N,unconnected-(U1-PA12-Pad42)*%
X166570000Y-77139800D03*
%TO.P,U1,43,PA13*%
%TO.N,unconnected-(U1-PA13-Pad43)*%
X166170000Y-77139800D03*
%TO.P,U1,44,PA14*%
%TO.N,unconnected-(U1-PA14-Pad44)*%
X165770001Y-77139800D03*
%TO.P,U1,45,PA15*%
%TO.N,unconnected-(U1-PA15-Pad45)*%
X165369999Y-77139800D03*
%TO.P,U1,46,PB0*%
%TO.N,unconnected-(U1-PB0-Pad46)*%
X164970000Y-77139800D03*
%TO.P,U1,47,PB1*%
%TO.N,unconnected-(U1-PB1-Pad47)*%
X164570001Y-77139800D03*
%TO.P,U1,48,PB2*%
%TO.N,unconnected-(U1-PB2-Pad48)*%
X164169999Y-77139800D03*
D13*
%TO.P,U1,49,EPAD*%
%TO.N,GND*%
X166370000Y-80010000D03*
%TD*%
D14*
%TO.P,R3,2*%
%TO.N,VDD*%
X170942000Y-81346000D03*
%TO.P,R3,1*%
%TO.N,Net-(U2-WP#)*%
X170942000Y-80706000D03*
%TD*%
D15*
%TO.P,U4,1,32KHZ*%
%TO.N,unconnected-(U4-32KHZ-Pad1)*%
X173039000Y-86741000D03*
%TO.P,U4,2,VCC*%
%TO.N,VDD*%
X173039000Y-88011000D03*
%TO.P,U4,3,~{INT}/SQW*%
%TO.N,unconnected-(U4-~{INT}{slash}SQW-Pad3)*%
X173039000Y-89281000D03*
%TO.P,U4,4,~{RST}*%
%TO.N,unconnected-(U4-~{RST}-Pad4)*%
X173039000Y-90551000D03*
%TO.P,U4,5,GND*%
%TO.N,GND*%
X177989000Y-90551000D03*
%TO.P,U4,6,VBAT*%
%TO.N,VDD_CLK*%
X177989000Y-89281000D03*
%TO.P,U4,7,SDA*%
%TO.N,SD7*%
X177989000Y-88011000D03*
%TO.P,U4,8,SCL*%
%TO.N,I2C2_SCL*%
X177989000Y-86741000D03*
%TD*%
D16*
%TO.P,U3,1,SD0*%
%TO.N,SD0*%
X164452500Y-87413000D03*
%TO.P,U3,2,SC0*%
%TO.N,unconnected-(U3-SC0-Pad2)*%
X164452500Y-87913000D03*
%TO.P,U3,3,SD1*%
%TO.N,SD1*%
X164452500Y-88413000D03*
%TO.P,U3,4,SC1*%
%TO.N,unconnected-(U3-SC1-Pad4)*%
X164452500Y-88913000D03*
%TO.P,U3,5,SD2*%
%TO.N,SD2*%
X164452500Y-89413000D03*
%TO.P,U3,6,SC2*%
%TO.N,unconnected-(U3-SC2-Pad6)*%
X164452500Y-89913000D03*
D17*
%TO.P,U3,7,SD3*%
%TO.N,SD3*%
X165140000Y-90600500D03*
%TO.P,U3,8,SC3*%
%TO.N,unconnected-(U3-SC3-Pad8)*%
X165640000Y-90600500D03*
%TO.P,U3,9,GND*%
%TO.N,GND*%
X166140000Y-90600500D03*
%TO.P,U3,10,SD4*%
%TO.N,SD4*%
X166640000Y-90600500D03*
%TO.P,U3,11,SC4*%
%TO.N,unconnected-(U3-SC4-Pad11)*%
X167140000Y-90600500D03*
%TO.P,U3,12,SD5*%
%TO.N,SD5*%
X167640000Y-90600500D03*
D16*
%TO.P,U3,13,SC5*%
%TO.N,unconnected-(U3-SC5-Pad13)*%
X168327500Y-89913000D03*
%TO.P,U3,14,SD6*%
%TO.N,SD6*%
X168327500Y-89413000D03*
%TO.P,U3,15,SC6*%
%TO.N,unconnected-(U3-SC6-Pad15)*%
X168327500Y-88913000D03*
%TO.P,U3,16,SD7*%
%TO.N,SD7*%
X168327500Y-88413000D03*
%TO.P,U3,17,SC7*%
%TO.N,unconnected-(U3-SC7-Pad17)*%
X168327500Y-87913000D03*
%TO.P,U3,18,A2*%
%TO.N,A2*%
X168327500Y-87413000D03*
D17*
%TO.P,U3,19,SCL*%
%TO.N,I2C2_SCL*%
X167640000Y-86725500D03*
%TO.P,U3,20,SDA*%
%TO.N,I2C2_SDA*%
X167140000Y-86725500D03*
%TO.P,U3,21,VCC*%
%TO.N,VDD*%
X166640000Y-86725500D03*
%TO.P,U3,22,A0*%
%TO.N,A0*%
X166140000Y-86725500D03*
%TO.P,U3,23,A1*%
%TO.N,A1*%
X165640000Y-86725500D03*
%TO.P,U3,24,~{RESET}*%
%TO.N,MRST*%
X165140000Y-86725500D03*
D18*
%TO.P,U3,25,1EP*%
%TO.N,unconnected-(U3-1EP-Pad25)*%
X166390000Y-88663000D03*
%TD*%
D19*
%TO.P,RLED1,1,K*%
%TO.N,Net-(RLED1-K)*%
X161412000Y-79883000D03*
%TO.P,RLED1,2,A*%
%TO.N,Net-(RLED1-A)*%
X162052000Y-79883000D03*
%TD*%
D20*
%TO.P,R7,1*%
%TO.N,VDD*%
X170434000Y-88676000D03*
%TO.P,R7,2*%
%TO.N,SD7*%
X170434000Y-88036000D03*
%TD*%
%TO.P,R5,1*%
%TO.N,I2C2_SDA*%
X171069000Y-84968000D03*
%TO.P,R5,2*%
%TO.N,VDD*%
X171069000Y-84328000D03*
%TD*%
D14*
%TO.P,R4,1*%
%TO.N,VDD*%
X169926000Y-85024000D03*
%TO.P,R4,2*%
%TO.N,I2C2_SCL*%
X169926000Y-85664000D03*
%TD*%
D19*
%TO.P,R2,1*%
%TO.N,GND*%
X159609000Y-79883000D03*
%TO.P,R2,2*%
%TO.N,Net-(RLED1-K)*%
X160249000Y-79883000D03*
%TD*%
%TO.P,R1,1*%
%TO.N,GND*%
X159609000Y-78994000D03*
%TO.P,R1,2*%
%TO.N,Net-(GLED1-K)*%
X160249000Y-78994000D03*
%TD*%
D21*
%TO.P,J18,1,Pin_1*%
%TO.N,NRST*%
X176022000Y-74549000D03*
%TD*%
%TO.P,J17,1,Pin_1*%
%TO.N,GND*%
X170688000Y-74549000D03*
%TD*%
%TO.P,J16,1,Pin_1*%
%TO.N,VDD_CLK*%
X178689000Y-74549000D03*
%TD*%
%TO.P,J15,1,Pin_1*%
%TO.N,VDD*%
X173355000Y-74549000D03*
%TD*%
%TO.P,J14,1,Pin_1*%
%TO.N,USART1_TX*%
X159893000Y-87757000D03*
%TD*%
%TO.P,J13,1,Pin_1*%
%TO.N,USART1_RX*%
X159893000Y-90424000D03*
%TD*%
%TO.P,J12,1,Pin_1*%
%TO.N,SWCLK*%
X159766000Y-74676000D03*
%TD*%
%TO.P,J11,1,Pin_1*%
%TO.N,SWDIO*%
X162433000Y-74676000D03*
%TD*%
%TO.P,J10,1,Pin_1*%
%TO.N,GPIO2*%
X159893000Y-85090000D03*
%TD*%
%TO.P,J9,1,Pin_1*%
%TO.N,GPIO1*%
X159893000Y-82423000D03*
%TD*%
%TO.P,J8,1,Pin_1*%
%TO.N,I2C2_SCL*%
X178562000Y-93091000D03*
%TD*%
%TO.P,J7,1,Pin_1*%
%TO.N,SD0*%
X159893000Y-93091000D03*
%TD*%
%TO.P,J6,1,Pin_1*%
%TO.N,SD6*%
X175895000Y-93091000D03*
%TD*%
%TO.P,J5,1,Pin_1*%
%TO.N,SD5*%
X173228000Y-93091000D03*
%TD*%
%TO.P,J4,1,Pin_1*%
%TO.N,SD4*%
X170561000Y-93091000D03*
%TD*%
%TO.P,J3,1,Pin_1*%
%TO.N,SD3*%
X167894000Y-93091000D03*
%TD*%
%TO.P,J2,1,Pin_1*%
%TO.N,SD2*%
X165227000Y-93091000D03*
%TD*%
%TO.P,J1,1,Pin_1*%
%TO.N,SD1*%
X162560000Y-93091000D03*
%TD*%
D19*
%TO.P,GLED1,1,K*%
%TO.N,Net-(GLED1-K)*%
X161387000Y-78994000D03*
%TO.P,GLED1,2,A*%
%TO.N,Net-(GLED1-A)*%
X162027000Y-78994000D03*
%TD*%
D22*
%TO.P,C11,1*%
%TO.N,VDD_CLK*%
X175997000Y-85090000D03*
%TO.P,C11,2*%
%TO.N,GND*%
X175357000Y-85090000D03*
%TD*%
D14*
%TO.P,C10,1*%
%TO.N,VDD*%
X170434000Y-89535000D03*
%TO.P,C10,2*%
%TO.N,GND*%
X170434000Y-90175000D03*
%TD*%
D19*
%TO.P,C9,1*%
%TO.N,VDD*%
X167737000Y-84836000D03*
%TO.P,C9,2*%
%TO.N,GND*%
X168377000Y-84836000D03*
%TD*%
D14*
%TO.P,C8,1*%
%TO.N,VDD*%
X170942000Y-82230000D03*
%TO.P,C8,2*%
%TO.N,GND*%
X170942000Y-82870000D03*
%TD*%
D20*
%TO.P,C6,1*%
%TO.N,VDD*%
X167513000Y-75758000D03*
%TO.P,C6,2*%
%TO.N,GND*%
X167513000Y-75118000D03*
%TD*%
D19*
%TO.P,C3,1*%
%TO.N,GND*%
X160625000Y-78105000D03*
%TO.P,C3,2*%
%TO.N,VDD*%
X161265000Y-78105000D03*
%TD*%
D20*
%TO.P,C2,1*%
%TO.N,Net-(U1-VCAP)*%
X166624000Y-75758000D03*
%TO.P,C2,2*%
%TO.N,GND*%
X166624000Y-75118000D03*
%TD*%
D23*
%TO.N,I2C2_SCL*%
X178562000Y-93091000D03*
%TO.N,GND*%
X166243000Y-91440000D03*
X170434000Y-90175000D03*
%TO.N,VDD*%
X161265000Y-78105000D03*
%TO.N,GND*%
X166370000Y-80010000D03*
X159609000Y-79883000D03*
%TO.N,VDD*%
X173039000Y-88011000D03*
X171470000Y-86213000D03*
%TO.N,GND*%
X175387000Y-88011000D03*
X175387000Y-86741000D03*
%TO.N,VDD*%
X170942000Y-82230000D03*
X171069000Y-84328000D03*
%TO.N,I2C2_SDA*%
X171069000Y-84968000D03*
%TO.N,I2C2_SCL*%
X169926000Y-85664000D03*
%TO.N,VDD*%
X168529000Y-76327000D03*
X167370001Y-75946000D03*
%TO.N,I2C2_SCL*%
X177989000Y-86741000D03*
%TO.N,SPI1_CLK*%
X170053000Y-79646003D03*
X178371500Y-80645000D03*
%TO.N,SPI1_CS*%
X170053000Y-79121000D03*
X172910500Y-78105000D03*
%TO.N,GND*%
X168529000Y-83566000D03*
X168377000Y-84836000D03*
%TO.N,VDD*%
X167386000Y-83566000D03*
X167737000Y-84836000D03*
%TO.N,MRST*%
X165100000Y-85725000D03*
%TO.N,I2C2_SDA*%
X167132000Y-85344000D03*
%TO.N,I2C2_SCL*%
X167640000Y-85852000D03*
%TO.N,MRST*%
X162182000Y-81410000D03*
%TO.N,I2C2_SDA*%
X165498003Y-84074000D03*
%TO.N,I2C2_SCL*%
X164973000Y-84074000D03*
%TD*%
D24*
%TO.N,GND*%
X170942000Y-82870000D02*
X170749000Y-82870000D01*
X170749000Y-82870000D02*
X170738800Y-82880200D01*
X170738800Y-82880200D02*
X168570001Y-82880200D01*
%TO.N,VDD_CLK*%
X178689000Y-74549000D02*
X179447400Y-75307400D01*
X179447400Y-83385436D02*
X177742836Y-85090000D01*
X179447400Y-75307400D02*
X179447400Y-83385436D01*
%TO.N,NRST*%
X176022000Y-74549000D02*
X175210600Y-74549000D01*
X171949601Y-77809999D02*
X169240200Y-77809999D01*
X175210600Y-74549000D02*
X171949601Y-77809999D01*
%TO.N,VDD*%
X173355000Y-74549000D02*
X171577000Y-76327000D01*
X171577000Y-76327000D02*
X168529000Y-76327000D01*
%TO.N,GND*%
X170688000Y-74549000D02*
X169739900Y-74549000D01*
X167770000Y-76518900D02*
X167770000Y-77139800D01*
X169739900Y-74549000D02*
X167770000Y-76518900D01*
%TO.N,SWDIO*%
X163499800Y-77809999D02*
X163499800Y-75742800D01*
X163499800Y-75742800D02*
X162433000Y-74676000D01*
%TO.N,SWCLK*%
X163499800Y-78210001D02*
X163046001Y-78210001D01*
X163046001Y-78210001D02*
X159766000Y-74930000D01*
X159766000Y-74930000D02*
X159766000Y-74676000D01*
%TO.N,USART1_RX*%
X163499800Y-82210001D02*
X163499800Y-86817200D01*
X163499800Y-86817200D02*
X159893000Y-90424000D01*
%TO.N,USART1_TX*%
X163499800Y-81809999D02*
X162968000Y-81809999D01*
X162968000Y-81809999D02*
X161045000Y-83732999D01*
X161045000Y-86605000D02*
X159893000Y-87757000D01*
X161045000Y-83732999D02*
X161045000Y-86605000D01*
%TO.N,GPIO2*%
X163499800Y-81010001D02*
X162014899Y-81010001D01*
X162014899Y-81010001D02*
X160844000Y-82180900D01*
X160844000Y-82180900D02*
X160844000Y-84139000D01*
X160844000Y-84139000D02*
X159893000Y-85090000D01*
%TO.N,GPIO1*%
X163499800Y-80609999D02*
X161706001Y-80609999D01*
X161706001Y-80609999D02*
X159893000Y-82423000D01*
%TO.N,SD0*%
X161163000Y-91821000D02*
X163449000Y-91821000D01*
X159893000Y-93091000D02*
X161163000Y-91821000D01*
X164211334Y-87413000D02*
X164452500Y-87413000D01*
X163449000Y-91821000D02*
X163449000Y-88175334D01*
X163449000Y-88175334D02*
X164211334Y-87413000D01*
%TO.N,SD1*%
X162560000Y-93091000D02*
X163663000Y-91988000D01*
X163663000Y-91988000D02*
X163663000Y-88961334D01*
X163663000Y-88961334D02*
X164211334Y-88413000D01*
X164211334Y-88413000D02*
X164452500Y-88413000D01*
%TO.N,GND*%
X166140000Y-91337000D02*
X166243000Y-91440000D01*
X166140000Y-90600500D02*
X166140000Y-91337000D01*
%TO.N,SD5*%
X167640000Y-90600500D02*
X168426500Y-91387000D01*
X168426500Y-91387000D02*
X171524000Y-91387000D01*
X171524000Y-91387000D02*
X173228000Y-93091000D01*
%TO.N,SD6*%
X169799000Y-90127738D02*
X169799000Y-91186000D01*
X169084262Y-89413000D02*
X169799000Y-90127738D01*
X173990000Y-91186000D02*
X175895000Y-93091000D01*
X168327500Y-89413000D02*
X169084262Y-89413000D01*
X169799000Y-91186000D02*
X173990000Y-91186000D01*
%TO.N,SD4*%
X166640000Y-90600500D02*
X166640000Y-91037999D01*
X169610000Y-92140000D02*
X170561000Y-93091000D01*
X166640000Y-91037999D02*
X167742001Y-92140000D01*
X167742001Y-92140000D02*
X169610000Y-92140000D01*
%TO.N,SD3*%
X165140000Y-90600500D02*
X165140000Y-91037999D01*
X165140000Y-91037999D02*
X167193001Y-93091000D01*
X167193001Y-93091000D02*
X167894000Y-93091000D01*
%TO.N,SD2*%
X164452500Y-89413000D02*
X164015001Y-89413000D01*
X164015001Y-89413000D02*
X163864000Y-89564001D01*
X163864000Y-91728000D02*
X165227000Y-93091000D01*
X163864000Y-89564001D02*
X163864000Y-91728000D01*
%TO.N,SD0*%
X164452500Y-87413000D02*
X164015001Y-87413000D01*
%TO.N,GND*%
X167770000Y-77139800D02*
X167770000Y-78610000D01*
X167770000Y-78610000D02*
X166370000Y-80010000D01*
%TO.N,VDD*%
X171470000Y-84729000D02*
X171470000Y-86213000D01*
X171069000Y-84328000D02*
X171470000Y-84729000D01*
X171450000Y-86233000D02*
X171470000Y-86213000D01*
%TO.N,GND*%
X170434000Y-90175000D02*
X171779000Y-88830000D01*
X171779000Y-88830000D02*
X174568000Y-88830000D01*
X174568000Y-88830000D02*
X175387000Y-88011000D01*
X175387000Y-88138000D02*
X177800000Y-90551000D01*
X177800000Y-90551000D02*
X177989000Y-90551000D01*
X175357000Y-85090000D02*
X175357000Y-86711000D01*
X175357000Y-86711000D02*
X175387000Y-86741000D01*
X175387000Y-88011000D02*
X175387000Y-88138000D01*
%TO.N,VDD*%
X171069000Y-84328000D02*
X170622000Y-84328000D01*
X170622000Y-84328000D02*
X169926000Y-85024000D01*
X168570001Y-76368001D02*
X168529000Y-76327000D01*
X168570001Y-77139800D02*
X168570001Y-76368001D01*
%TO.N,GND*%
X166624000Y-75118000D02*
X167513000Y-75118000D01*
X167770000Y-77139800D02*
X167864000Y-77045800D01*
X167864000Y-77045800D02*
X167864000Y-75469000D01*
X167864000Y-75469000D02*
X167513000Y-75118000D01*
%TO.N,VDD*%
X167370001Y-77139800D02*
X167370001Y-75900999D01*
X167370001Y-75900999D02*
X167513000Y-75758000D01*
%TO.N,Net-(U1-VCAP)*%
X166969999Y-77139800D02*
X166969999Y-76672999D01*
X166969999Y-76672999D02*
X166624000Y-76327000D01*
X166624000Y-76327000D02*
X166624000Y-75758000D01*
%TO.N,GND*%
X160625000Y-78105000D02*
X160498000Y-78105000D01*
X160498000Y-78105000D02*
X159609000Y-78994000D01*
%TO.N,VDD*%
X163499800Y-78610000D02*
X161770000Y-78610000D01*
X161770000Y-78610000D02*
X161265000Y-78105000D01*
%TO.N,GND*%
X159609000Y-78994000D02*
X159609000Y-79883000D01*
%TO.N,Net-(GLED1-K)*%
X161387000Y-78994000D02*
X161387000Y-78964000D01*
X161387000Y-78964000D02*
X161163000Y-78740000D01*
X161163000Y-78740000D02*
X160503000Y-78740000D01*
X160503000Y-78740000D02*
X160249000Y-78994000D01*
%TO.N,Net-(RLED1-K)*%
X161412000Y-79883000D02*
X161290000Y-79883000D01*
X161290000Y-79883000D02*
X161036000Y-80137000D01*
X161036000Y-80137000D02*
X160503000Y-80137000D01*
X160503000Y-80137000D02*
X160249000Y-79883000D01*
%TO.N,Net-(RLED1-A)*%
X163499800Y-79410001D02*
X163032999Y-79410001D01*
X163032999Y-79410001D02*
X162560000Y-79883000D01*
X162560000Y-79883000D02*
X162052000Y-79883000D01*
%TO.N,Net-(GLED1-A)*%
X163499800Y-79009999D02*
X162042999Y-79009999D01*
X162042999Y-79009999D02*
X162027000Y-78994000D01*
%TO.N,GND*%
X175357000Y-85090000D02*
X173162000Y-85090000D01*
X173162000Y-85090000D02*
X170942000Y-82870000D01*
%TO.N,VDD_CLK*%
X177989000Y-89281000D02*
X178963999Y-89281000D01*
X179115000Y-86462164D02*
X177742836Y-85090000D01*
X178963999Y-89281000D02*
X179115000Y-89129999D01*
X179115000Y-89129999D02*
X179115000Y-86462164D01*
X177742836Y-85090000D02*
X175997000Y-85090000D01*
%TO.N,VDD*%
X170434000Y-88676000D02*
X170434000Y-89535000D01*
X173039000Y-88011000D02*
X171099000Y-88011000D01*
X171099000Y-88011000D02*
X170434000Y-88676000D01*
%TO.N,SD7*%
X170434000Y-88036000D02*
X171094000Y-87376000D01*
X171094000Y-87376000D02*
X177354000Y-87376000D01*
X177354000Y-87376000D02*
X177989000Y-88011000D01*
X168327500Y-88413000D02*
X170057000Y-88413000D01*
X170057000Y-88413000D02*
X170434000Y-88036000D01*
%TO.N,VDD*%
X173014000Y-88036000D02*
X173039000Y-88011000D01*
%TO.N,SD7*%
X168327500Y-88413000D02*
X168452499Y-88537999D01*
%TO.N,SPI1_CLK*%
X169928997Y-79522000D02*
X170053000Y-79646003D01*
X169352199Y-79522000D02*
X169928997Y-79522000D01*
X169240200Y-79410001D02*
X169352199Y-79522000D01*
%TO.N,VDD*%
X170942000Y-81346000D02*
X176497200Y-81346000D01*
X176497200Y-81346000D02*
X177496600Y-82345400D01*
X177496600Y-82345400D02*
X179246400Y-82345400D01*
X179246400Y-82345400D02*
X179246400Y-78979900D01*
X179246400Y-78979900D02*
X178371500Y-78105000D01*
X170942000Y-81346000D02*
X170942000Y-82230000D01*
%TO.N,GND*%
X170942000Y-82870000D02*
X171955500Y-82870000D01*
X171955500Y-82870000D02*
X172910500Y-81915000D01*
%TO.N,VDD*%
X169240200Y-81410000D02*
X170878000Y-81410000D01*
X170878000Y-81410000D02*
X170942000Y-81346000D01*
%TO.N,Net-(U2-WP#)*%
X172910500Y-80645000D02*
X171003000Y-80645000D01*
X171003000Y-80645000D02*
X170942000Y-80706000D01*
%TO.N,SPI1_CS*%
X169941999Y-79009999D02*
X170053000Y-79121000D01*
X169240200Y-79009999D02*
X169941999Y-79009999D01*
%TO.N,SPI1_MOSI*%
X169240200Y-78610000D02*
X170840200Y-78610000D01*
X170840200Y-78610000D02*
X172444800Y-80214600D01*
X172444800Y-80214600D02*
X176671100Y-80214600D01*
X176671100Y-80214600D02*
X178371500Y-81915000D01*
%TO.N,SPI1_MISO*%
X169240200Y-78210001D02*
X171745501Y-78210001D01*
X171745501Y-78210001D02*
X172910500Y-79375000D01*
%TO.N,A2*%
X165770001Y-82880200D02*
X165770001Y-83315601D01*
X165770001Y-83315601D02*
X166889400Y-84435000D01*
X168778000Y-86962500D02*
X168327500Y-87413000D01*
X166889400Y-84435000D02*
X168563738Y-84435000D01*
X168778000Y-84649262D02*
X168778000Y-86962500D01*
X168563738Y-84435000D02*
X168778000Y-84649262D01*
%TO.N,GND*%
X168570001Y-83524999D02*
X168529000Y-83566000D01*
X168570001Y-82880200D02*
X168570001Y-83524999D01*
%TO.N,VDD*%
X167370001Y-83550001D02*
X167386000Y-83566000D01*
X167370001Y-82880200D02*
X167370001Y-83550001D01*
%TO.N,A1*%
X164169999Y-82880200D02*
X164169999Y-84227899D01*
X164169999Y-84227899D02*
X165640000Y-85697900D01*
X165640000Y-85697900D02*
X165640000Y-86725500D01*
%TO.N,A0*%
X164570001Y-82880200D02*
X164570001Y-84238101D01*
X164570001Y-84238101D02*
X166140000Y-85808100D01*
X166140000Y-85808100D02*
X166140000Y-86725500D01*
%TO.N,MRST*%
X165140000Y-85765000D02*
X165100000Y-85725000D01*
X165140000Y-86725500D02*
X165140000Y-85765000D01*
%TO.N,VDD*%
X167737000Y-84836000D02*
X167072900Y-84836000D01*
X167072900Y-84836000D02*
X166640000Y-85268900D01*
X166640000Y-85268900D02*
X166640000Y-86725500D01*
%TO.N,I2C2_SDA*%
X167140000Y-85352000D02*
X167132000Y-85344000D01*
X167140000Y-86725500D02*
X167140000Y-85352000D01*
%TO.N,I2C2_SCL*%
X167640000Y-86725500D02*
X167640000Y-85852000D01*
%TO.N,GND*%
X168570001Y-82880200D02*
X168570001Y-82210001D01*
X168570001Y-82210001D02*
X166370000Y-80010000D01*
%TO.N,MRST*%
X163499800Y-81410000D02*
X162182000Y-81410000D01*
X162179000Y-81407000D02*
X162182000Y-81410000D01*
%TO.N,I2C2_SDA*%
X165374000Y-82884201D02*
X165374000Y-84074000D01*
X165369999Y-82880200D02*
X165374000Y-82884201D01*
X165374000Y-84074000D02*
X165498003Y-84074000D01*
%TO.N,I2C2_SCL*%
X164973000Y-82883200D02*
X164973000Y-84074000D01*
X164970000Y-82880200D02*
X164973000Y-82883200D01*
%TD*%
M02*
