%TF.GenerationSoftware,KiCad,Pcbnew,9.0.1*%
%TF.CreationDate,2025-07-19T07:10:26-04:00*%
%TF.ProjectId,MX25V5126FM1I,4d583235-5635-4313-9236-464d31492e6b,rev?*%
%TF.SameCoordinates,Original*%
%TF.FileFunction,Copper,L1,Top*%
%TF.FilePolarity,Positive*%
%FSLAX46Y46*%
G04 Gerber Fmt 4.6, Leading zero omitted, Abs format (unit mm)*
G04 Created by KiCad (PCBNEW 9.0.1) date 2025-07-19 07:10:26*
%MOMM*%
%LPD*%
G01*
G04 APERTURE LIST*
%TA.AperFunction,SMDPad,CuDef*%
%ADD10R,1.447800X0.558800*%
%TD*%
%TA.AperFunction,ComponentPad*%
%ADD11R,1.700000X1.700000*%
%TD*%
%TA.AperFunction,ComponentPad*%
%ADD12C,1.700000*%
%TD*%
%TA.AperFunction,Conductor*%
%ADD13C,0.200000*%
%TD*%
G04 APERTURE END LIST*
D10*
%TO.P,U1,1,CS#*%
%TO.N,Net-(J1-Pin_1)*%
X150749000Y-86360000D03*
%TO.P,U1,2,SO/SIO1*%
%TO.N,Net-(J1-Pin_2)*%
X150749000Y-87630000D03*
%TO.P,U1,3,WP#*%
%TO.N,Net-(J1-Pin_3)*%
X150749000Y-88900000D03*
%TO.P,U1,4,GND*%
%TO.N,Net-(J1-Pin_4)*%
X150749000Y-90170000D03*
%TO.P,U1,5,SI/SIO0*%
%TO.N,Net-(J2-Pin_1)*%
X156210000Y-90170000D03*
%TO.P,U1,6,SCLK*%
%TO.N,Net-(J2-Pin_2)*%
X156210000Y-88900000D03*
%TO.P,U1,7,NC*%
%TO.N,Net-(J2-Pin_3)*%
X156210000Y-87630000D03*
%TO.P,U1,8,VCC*%
%TO.N,Net-(J2-Pin_4)*%
X156210000Y-86360000D03*
%TD*%
D11*
%TO.P,J2,1,Pin_1*%
%TO.N,Net-(J2-Pin_1)*%
X163830000Y-92710000D03*
D12*
%TO.P,J2,2,Pin_2*%
%TO.N,Net-(J2-Pin_2)*%
X163830000Y-90170000D03*
%TO.P,J2,3,Pin_3*%
%TO.N,Net-(J2-Pin_3)*%
X163830000Y-87630000D03*
%TO.P,J2,4,Pin_4*%
%TO.N,Net-(J2-Pin_4)*%
X163830000Y-85090000D03*
%TD*%
D11*
%TO.P,J1,1,Pin_1*%
%TO.N,Net-(J1-Pin_1)*%
X142309900Y-85090000D03*
D12*
%TO.P,J1,2,Pin_2*%
%TO.N,Net-(J1-Pin_2)*%
X142309900Y-87630000D03*
%TO.P,J1,3,Pin_3*%
%TO.N,Net-(J1-Pin_3)*%
X142309900Y-90170000D03*
%TO.P,J1,4,Pin_4*%
%TO.N,Net-(J1-Pin_4)*%
X142309900Y-92710000D03*
%TD*%
D13*
%TO.N,Net-(J2-Pin_3)*%
X163830000Y-87630000D02*
X156210000Y-87630000D01*
%TO.N,Net-(J1-Pin_4)*%
X150749000Y-90170000D02*
X144849900Y-90170000D01*
X144849900Y-90170000D02*
X142309900Y-92710000D01*
%TO.N,Net-(J1-Pin_3)*%
X150749000Y-88900000D02*
X143579900Y-88900000D01*
X143579900Y-88900000D02*
X142309900Y-90170000D01*
%TO.N,Net-(J1-Pin_2)*%
X150749000Y-87630000D02*
X142309900Y-87630000D01*
%TO.N,Net-(J1-Pin_1)*%
X150749000Y-86360000D02*
X143579900Y-86360000D01*
X143579900Y-86360000D02*
X142309900Y-85090000D01*
%TO.N,Net-(J2-Pin_1)*%
X156210000Y-90170000D02*
X157480000Y-90170000D01*
X157480000Y-90170000D02*
X160020000Y-92710000D01*
X160020000Y-92710000D02*
X163830000Y-92710000D01*
%TO.N,Net-(J2-Pin_2)*%
X156210000Y-88900000D02*
X162560000Y-88900000D01*
X162560000Y-88900000D02*
X163830000Y-90170000D01*
%TO.N,Net-(J2-Pin_4)*%
X156210000Y-86360000D02*
X162560000Y-86360000D01*
X162560000Y-86360000D02*
X163830000Y-85090000D01*
%TD*%
M02*
