%TF.GenerationSoftware,KiCad,Pcbnew,9.0.1*%
%TF.CreationDate,2025-07-19T07:10:27-04:00*%
%TF.ProjectId,MX25V5126FM1I,4d583235-5635-4313-9236-464d31492e6b,rev?*%
%TF.SameCoordinates,Original*%
%TF.FileFunction,Legend,Top*%
%TF.FilePolarity,Positive*%
%FSLAX46Y46*%
G04 Gerber Fmt 4.6, Leading zero omitted, Abs format (unit mm)*
G04 Created by KiCad (PCBNEW 9.0.1) date 2025-07-19 07:10:27*
%MOMM*%
%LPD*%
G01*
G04 APERTURE LIST*
%ADD10C,0.100000*%
%ADD11C,0.150000*%
%ADD12C,0.152400*%
%ADD13C,0.120000*%
G04 APERTURE END LIST*
D10*
X144290074Y-97662419D02*
X143813884Y-97662419D01*
X143813884Y-97662419D02*
X143813884Y-96662419D01*
X145051979Y-97662419D02*
X145051979Y-97138609D01*
X145051979Y-97138609D02*
X145004360Y-97043371D01*
X145004360Y-97043371D02*
X144909122Y-96995752D01*
X144909122Y-96995752D02*
X144718646Y-96995752D01*
X144718646Y-96995752D02*
X144623408Y-97043371D01*
X145051979Y-97614800D02*
X144956741Y-97662419D01*
X144956741Y-97662419D02*
X144718646Y-97662419D01*
X144718646Y-97662419D02*
X144623408Y-97614800D01*
X144623408Y-97614800D02*
X144575789Y-97519561D01*
X144575789Y-97519561D02*
X144575789Y-97424323D01*
X144575789Y-97424323D02*
X144623408Y-97329085D01*
X144623408Y-97329085D02*
X144718646Y-97281466D01*
X144718646Y-97281466D02*
X144956741Y-97281466D01*
X144956741Y-97281466D02*
X145051979Y-97233847D01*
X145528170Y-97662419D02*
X145528170Y-96995752D01*
X145528170Y-97186228D02*
X145575789Y-97090990D01*
X145575789Y-97090990D02*
X145623408Y-97043371D01*
X145623408Y-97043371D02*
X145718646Y-96995752D01*
X145718646Y-96995752D02*
X145813884Y-96995752D01*
X146147218Y-97662419D02*
X146147218Y-96662419D01*
X146242456Y-97281466D02*
X146528170Y-97662419D01*
X146528170Y-96995752D02*
X146147218Y-97376704D01*
X146909123Y-97614800D02*
X147004361Y-97662419D01*
X147004361Y-97662419D02*
X147194837Y-97662419D01*
X147194837Y-97662419D02*
X147290075Y-97614800D01*
X147290075Y-97614800D02*
X147337694Y-97519561D01*
X147337694Y-97519561D02*
X147337694Y-97471942D01*
X147337694Y-97471942D02*
X147290075Y-97376704D01*
X147290075Y-97376704D02*
X147194837Y-97329085D01*
X147194837Y-97329085D02*
X147051980Y-97329085D01*
X147051980Y-97329085D02*
X146956742Y-97281466D01*
X146956742Y-97281466D02*
X146909123Y-97186228D01*
X146909123Y-97186228D02*
X146909123Y-97138609D01*
X146909123Y-97138609D02*
X146956742Y-97043371D01*
X146956742Y-97043371D02*
X147051980Y-96995752D01*
X147051980Y-96995752D02*
X147194837Y-96995752D01*
X147194837Y-96995752D02*
X147290075Y-97043371D01*
X147766266Y-96995752D02*
X147766266Y-97995752D01*
X147766266Y-97043371D02*
X147861504Y-96995752D01*
X147861504Y-96995752D02*
X148051980Y-96995752D01*
X148051980Y-96995752D02*
X148147218Y-97043371D01*
X148147218Y-97043371D02*
X148194837Y-97090990D01*
X148194837Y-97090990D02*
X148242456Y-97186228D01*
X148242456Y-97186228D02*
X148242456Y-97471942D01*
X148242456Y-97471942D02*
X148194837Y-97567180D01*
X148194837Y-97567180D02*
X148147218Y-97614800D01*
X148147218Y-97614800D02*
X148051980Y-97662419D01*
X148051980Y-97662419D02*
X147861504Y-97662419D01*
X147861504Y-97662419D02*
X147766266Y-97614800D01*
X149099599Y-96995752D02*
X149099599Y-97662419D01*
X148671028Y-96995752D02*
X148671028Y-97519561D01*
X148671028Y-97519561D02*
X148718647Y-97614800D01*
X148718647Y-97614800D02*
X148813885Y-97662419D01*
X148813885Y-97662419D02*
X148956742Y-97662419D01*
X148956742Y-97662419D02*
X149051980Y-97614800D01*
X149051980Y-97614800D02*
X149099599Y-97567180D01*
X149575790Y-97662419D02*
X149575790Y-96995752D01*
X149575790Y-97186228D02*
X149623409Y-97090990D01*
X149623409Y-97090990D02*
X149671028Y-97043371D01*
X149671028Y-97043371D02*
X149766266Y-96995752D01*
X149766266Y-96995752D02*
X149861504Y-96995752D01*
X151432933Y-97662419D02*
X150956743Y-97662419D01*
X150956743Y-97662419D02*
X150956743Y-96662419D01*
X152194838Y-97662419D02*
X152194838Y-97138609D01*
X152194838Y-97138609D02*
X152147219Y-97043371D01*
X152147219Y-97043371D02*
X152051981Y-96995752D01*
X152051981Y-96995752D02*
X151861505Y-96995752D01*
X151861505Y-96995752D02*
X151766267Y-97043371D01*
X152194838Y-97614800D02*
X152099600Y-97662419D01*
X152099600Y-97662419D02*
X151861505Y-97662419D01*
X151861505Y-97662419D02*
X151766267Y-97614800D01*
X151766267Y-97614800D02*
X151718648Y-97519561D01*
X151718648Y-97519561D02*
X151718648Y-97424323D01*
X151718648Y-97424323D02*
X151766267Y-97329085D01*
X151766267Y-97329085D02*
X151861505Y-97281466D01*
X151861505Y-97281466D02*
X152099600Y-97281466D01*
X152099600Y-97281466D02*
X152194838Y-97233847D01*
X152671029Y-97662419D02*
X152671029Y-96662419D01*
X152671029Y-97043371D02*
X152766267Y-96995752D01*
X152766267Y-96995752D02*
X152956743Y-96995752D01*
X152956743Y-96995752D02*
X153051981Y-97043371D01*
X153051981Y-97043371D02*
X153099600Y-97090990D01*
X153099600Y-97090990D02*
X153147219Y-97186228D01*
X153147219Y-97186228D02*
X153147219Y-97471942D01*
X153147219Y-97471942D02*
X153099600Y-97567180D01*
X153099600Y-97567180D02*
X153051981Y-97614800D01*
X153051981Y-97614800D02*
X152956743Y-97662419D01*
X152956743Y-97662419D02*
X152766267Y-97662419D01*
X152766267Y-97662419D02*
X152671029Y-97614800D01*
X157783884Y-95122419D02*
X157783884Y-94122419D01*
X157783884Y-94122419D02*
X158164836Y-94122419D01*
X158164836Y-94122419D02*
X158260074Y-94170038D01*
X158260074Y-94170038D02*
X158307693Y-94217657D01*
X158307693Y-94217657D02*
X158355312Y-94312895D01*
X158355312Y-94312895D02*
X158355312Y-94455752D01*
X158355312Y-94455752D02*
X158307693Y-94550990D01*
X158307693Y-94550990D02*
X158260074Y-94598609D01*
X158260074Y-94598609D02*
X158164836Y-94646228D01*
X158164836Y-94646228D02*
X157783884Y-94646228D01*
X158783884Y-95122419D02*
X158783884Y-94455752D01*
X158783884Y-94122419D02*
X158736265Y-94170038D01*
X158736265Y-94170038D02*
X158783884Y-94217657D01*
X158783884Y-94217657D02*
X158831503Y-94170038D01*
X158831503Y-94170038D02*
X158783884Y-94122419D01*
X158783884Y-94122419D02*
X158783884Y-94217657D01*
X159260074Y-94455752D02*
X159260074Y-95122419D01*
X159260074Y-94550990D02*
X159307693Y-94503371D01*
X159307693Y-94503371D02*
X159402931Y-94455752D01*
X159402931Y-94455752D02*
X159545788Y-94455752D01*
X159545788Y-94455752D02*
X159641026Y-94503371D01*
X159641026Y-94503371D02*
X159688645Y-94598609D01*
X159688645Y-94598609D02*
X159688645Y-95122419D01*
X161402931Y-94122419D02*
X160926741Y-94122419D01*
X160926741Y-94122419D02*
X160879122Y-94598609D01*
X160879122Y-94598609D02*
X160926741Y-94550990D01*
X160926741Y-94550990D02*
X161021979Y-94503371D01*
X161021979Y-94503371D02*
X161260074Y-94503371D01*
X161260074Y-94503371D02*
X161355312Y-94550990D01*
X161355312Y-94550990D02*
X161402931Y-94598609D01*
X161402931Y-94598609D02*
X161450550Y-94693847D01*
X161450550Y-94693847D02*
X161450550Y-94931942D01*
X161450550Y-94931942D02*
X161402931Y-95027180D01*
X161402931Y-95027180D02*
X161355312Y-95074800D01*
X161355312Y-95074800D02*
X161260074Y-95122419D01*
X161260074Y-95122419D02*
X161021979Y-95122419D01*
X161021979Y-95122419D02*
X160926741Y-95074800D01*
X160926741Y-95074800D02*
X160879122Y-95027180D01*
X145083884Y-83692419D02*
X145083884Y-82692419D01*
X145083884Y-82692419D02*
X145464836Y-82692419D01*
X145464836Y-82692419D02*
X145560074Y-82740038D01*
X145560074Y-82740038D02*
X145607693Y-82787657D01*
X145607693Y-82787657D02*
X145655312Y-82882895D01*
X145655312Y-82882895D02*
X145655312Y-83025752D01*
X145655312Y-83025752D02*
X145607693Y-83120990D01*
X145607693Y-83120990D02*
X145560074Y-83168609D01*
X145560074Y-83168609D02*
X145464836Y-83216228D01*
X145464836Y-83216228D02*
X145083884Y-83216228D01*
X146083884Y-83692419D02*
X146083884Y-83025752D01*
X146083884Y-82692419D02*
X146036265Y-82740038D01*
X146036265Y-82740038D02*
X146083884Y-82787657D01*
X146083884Y-82787657D02*
X146131503Y-82740038D01*
X146131503Y-82740038D02*
X146083884Y-82692419D01*
X146083884Y-82692419D02*
X146083884Y-82787657D01*
X146560074Y-83025752D02*
X146560074Y-83692419D01*
X146560074Y-83120990D02*
X146607693Y-83073371D01*
X146607693Y-83073371D02*
X146702931Y-83025752D01*
X146702931Y-83025752D02*
X146845788Y-83025752D01*
X146845788Y-83025752D02*
X146941026Y-83073371D01*
X146941026Y-83073371D02*
X146988645Y-83168609D01*
X146988645Y-83168609D02*
X146988645Y-83692419D01*
X148750550Y-83692419D02*
X148179122Y-83692419D01*
X148464836Y-83692419D02*
X148464836Y-82692419D01*
X148464836Y-82692419D02*
X148369598Y-82835276D01*
X148369598Y-82835276D02*
X148274360Y-82930514D01*
X148274360Y-82930514D02*
X148179122Y-82978133D01*
D11*
X152717595Y-87719819D02*
X152717595Y-88529342D01*
X152717595Y-88529342D02*
X152765214Y-88624580D01*
X152765214Y-88624580D02*
X152812833Y-88672200D01*
X152812833Y-88672200D02*
X152908071Y-88719819D01*
X152908071Y-88719819D02*
X153098547Y-88719819D01*
X153098547Y-88719819D02*
X153193785Y-88672200D01*
X153193785Y-88672200D02*
X153241404Y-88624580D01*
X153241404Y-88624580D02*
X153289023Y-88529342D01*
X153289023Y-88529342D02*
X153289023Y-87719819D01*
X154289023Y-88719819D02*
X153717595Y-88719819D01*
X154003309Y-88719819D02*
X154003309Y-87719819D01*
X154003309Y-87719819D02*
X153908071Y-87862676D01*
X153908071Y-87862676D02*
X153812833Y-87957914D01*
X153812833Y-87957914D02*
X153717595Y-88005533D01*
X150495000Y-84113019D02*
X150495000Y-84351114D01*
X150256905Y-84255876D02*
X150495000Y-84351114D01*
X150495000Y-84351114D02*
X150733095Y-84255876D01*
X150352143Y-84541590D02*
X150495000Y-84351114D01*
X150495000Y-84351114D02*
X150637857Y-84541590D01*
X150495000Y-84113019D02*
X150495000Y-84351114D01*
X150256905Y-84255876D02*
X150495000Y-84351114D01*
X150495000Y-84351114D02*
X150733095Y-84255876D01*
X150352143Y-84541590D02*
X150495000Y-84351114D01*
X150495000Y-84351114D02*
X150637857Y-84541590D01*
D12*
%TO.C,U1*%
X151345900Y-90906600D02*
X155613100Y-90906600D01*
X155613100Y-85623400D02*
X151345900Y-85623400D01*
D13*
%TO.C,J2*%
X165210000Y-94090000D02*
X163830000Y-94090000D01*
X165210000Y-92710000D02*
X165210000Y-94090000D01*
X165210000Y-91440000D02*
X165210000Y-83710000D01*
X165210000Y-91440000D02*
X162450000Y-91440000D01*
X165210000Y-83710000D02*
X162450000Y-83710000D01*
X162450000Y-91440000D02*
X162450000Y-83710000D01*
%TO.C,J1*%
X140929900Y-83710000D02*
X142309900Y-83710000D01*
X140929900Y-85090000D02*
X140929900Y-83710000D01*
X140929900Y-86360000D02*
X140929900Y-94090000D01*
X140929900Y-86360000D02*
X143689900Y-86360000D01*
X140929900Y-94090000D02*
X143689900Y-94090000D01*
X143689900Y-86360000D02*
X143689900Y-94090000D01*
%TD*%
M02*
